<svg xmlns="http://www.w3.org/2000/svg" xml:space="preserve" viewBox="0 0 831 1219"><path fill="#020b1b" d="M828.245 535.058c.065 1.429.13 2.857-.264 4.674-2.307 2.923-4.155 5.458-6.004 7.993-3.353.07-6.706.138-10.594-.206-2.156-.192-3.777.03-5.399.252-2.474.446-4.948.893-7.867 1.936-2.13 7.237-1.902 13.824.11 20.362.056 3.667.113 7.335-.31 11.47a157 157 0 0 1-3.936 3.253c-2.365.063-4.73.126-7.64-.278-3.086-.805-5.623-1.39-8.168-1.427-5.306-.078-7.105 1.821-7.14 7.185-.044 6.485-.147 12.974.042 19.454.093 3.204-.897 4.612-4.234 4.303-4.605-.427-9.24-.536-13.843-.977-6.217-.596-7.933.784-7.95 6.843-.02 7.787-.152 15.578.065 23.359.088 3.147-1.536 4.006-4.048 4.474-4.814.898-9.623 1.82-14.417 2.814-.297.062-.447.83-.665 1.269-1.384.058-2.768.116-4.658-.276-6.609-2.852-9.247-1.224-9.283 5.022-.034 5.776-.118 11.556.034 17.328.098 3.707.582 7.402.892 11.103.062.76.123 1.52-.192 2.949-.187 4.795.002 8.922.192 13.05.067 4.695.134 9.39-.298 14.374-1.631.083-2.759-.273-3.894-.3-6.755-.16-13.536.073-20.258-.458-5.063-.4-7.917 2.135-7.188 7.09.453 3.086.44 6.25.493 9.38.07 4.252-.348 8.542.089 12.749.494 4.762-.283 6.16-5.016 6.193-7.497.054-14.996-.075-22.49.052-5.384.092-9.106 4.622-6.933 8.16 3.531 5.752 3.301 11.139.415 16.968-.85 1.715.432 4.58.994 6.854.234.944 1.14 1.722 2.426 3.548-7.409 0-13.769-.065-20.127.02-5.6.073-11.198.27-16.791.54-.675.033-1.506.731-1.934 1.35-2.706 3.903-2.716 8.014-1.826 12.661 1.005 5.251 1.276 10.771.895 16.105-.193 2.717-2.301 5.601-5.95 5.633-6.16.053-12.388.553-18.465-.165-9.428-1.112-10.071-.9-10.082 8.636-.005 3.831.016 7.663-.002 11.495-.017 3.497-1.932 6.651-.287 10.6 1.271 3.05-2.788 6.548-6.398 6.562-6.997.027-13.997-.104-20.988.103-1.456.043-2.877 1.268-4.314 1.949v35.56h-12.431v36.107h-30.68c0 11.94 0 23.519-.473 35.601-11.14.6-21.807.696-32.725.72-.391.028-.533.129-.97.491-.251 9.302-.206 18.342-.16 27.382-.086 1.103-.17 2.206-.264 4.06.02 1.76.051 2.767.082 3.774-9.815.115-19.63.23-30.308.308-3.24-.394-4.505.154-4.392 3.033.214 5.454.135 10.925.015 16.385-.136 6.237-.45 12.47-.686 18.705h-32.005c0 11.739 0 23.304-.422 35.526-8.487.657-16.551.657-24.994.657 0 3.93.048 7.05-.009 10.167-.157 8.589-.357 17.176-.54 25.764h-23.108c0 4.248 0 8.012-.068 12.611-.344 8.913-.62 16.99-.895 25.065 0 0-.006-.002-.47-.067-7.88-.064-15.297-.126-22.71-.008-1.376.022-2.74.77-4.109 1.182-.065.702-.13 1.404-.254 2.887.063 3.888.185 6.995.307 10.102-.078 3.972-.157 7.945-.293 12.692-.208 1.248-.358 1.721-.508 2.195-8.34.017-16.682.034-25.792.044-.948.308-1.126.623-1.305.937-.07.164-.139.328-.297 1.035a26 26 0 0 0 .189 3.109c-.075 5.297-.15 10.595-.282 16.76.047 2.655.153 4.441.259 6.227-.084 1.392-.168 2.783-.713 4.803-23.807.702-47.153.784-70.499.82-.93.001-1.86-.433-2.79-.664.015-9.024.03-18.047.093-27.948-.023-2.264-.093-3.65-.177-5.326l-4.685.357c-8.212-.106-16.425-.213-24.505-1.02.266-2.344.516-3.987.516-5.63.02-55.788.018-111.575.018-167.362.157-.063.315-.125 1.143-.16 2.413-.036 4.156-.1 5.898-.164 5.667.055 11.335.111 17.867.192 2.51-.328 5.393 1.095 4.685-2.637l.098-96.686c.004-3.941 0-7.882 0-12.379 10.162 0 19.765 0 30.137.057 3.165.113 5.984.637 4.619-3.442l.147-96.718c.003-2.112 0-4.223 0-6.769 3.834 0 7.118 0 11.304.055 8.102.055 15.304.055 22.994.055l-.233-4.586.195-3.501c-.025-11.735-.098-22.62-.17-33.504.064-.415.129-.83.228-1.9.053-1.118.07-1.578-.204-2.336-1.603-.433-2.913-.687-4.223-.687-81.929-.019-163.857-.022-245.786.024-1.562 0-3.123.616-4.913.87a18 18 0 0 1-1.447-.853c-.124-8.032-.247-16.063-.43-24.87-1.667-.872-3.274-.968-4.88-1.064a622 622 0 0 1-9.973-.217c-4.926.025-9.027.121-13.128.217-.607-1.671-1.736-3.341-1.742-5.015-.114-28.062-.087-56.125-.039-84.945-.019-2.226-.09-3.693-.162-5.16l.376-7.956h29.295v-67.223h28.84v-69.912c10.225 0 19.853 0 30.345-.06 1.294-1.36 2.097-2.66 2.1-3.96.05-21.388 0-42.776-.028-64.164h30.24v-69.613h33.54v-80.821h32.373V183.4h31.99v-76.06h33.384V38.847c10.324 0 20.099.042 29.873-.046 1.486-.013 2.967-.636 4.808-1.7.493-10.826.628-20.927 1.238-31.053 131.535-.03 262.594-.035 393.662.284.286 1.095.565 1.867.843 2.638.041 4.047.082 8.094-.19 12.921-.42 6.21-.524 11.639-.658 17.095-.028.027-.083.081-.544.062-11.139-.009-21.817.003-32.962-.022-107.928-.02-215.388-.006-322.849.012-1.499 0-3.125-.32-4.446.173-.714.266-.905 1.936-1.433 3.283-.063 1.373-.025 2.434-.142 3.94-.318 9.131-.483 17.817-1.113 26.549-11.19.046-21.913.046-33.163.046 0 11.44 0 22.214-.054 33.398.074 12.382.203 24.354-.116 36.317-11.126-.01-21.805-.01-32.515-.01 0 12 0 23.21-.084 34.852-.02 13.328.043 26.224-.314 39.282a160 160 0 0 1-11.958.69c-6.741.049-13.054.235-19.607.753-.14 10.472-.038 20.611-.038 31.206-.08 13.701-.059 26.948-.46 40.332-11.105.137-21.787.137-32.628.137 0 11.34 0 21.72-.077 32.317-.077.217.149.619.023 1.019.02 15.328.165 30.255.163 45.475-.06.928.029 1.564-.004 2.503a6 6 0 0 0 .045 1.51c-.009-.074-.156-.066-.505.12-10.862.185-21.377.185-31.924.185 0 12.56 0 23.815-.074 35.385-.047.743-.02 1.17-.087 1.797-.095.199.1.594.05 1.067-.01 7.246.03 14.02-.056 21.148-.04 1.348.043 2.34.07 3.76-.102 2.154-.148 3.88-.466 5.619-.434.091-.598.169-1.221.158-6.134-.005-11.81.079-17.91.06-2.17-.027-3.913.048-6.072.026-2.113-.032-3.81.035-5.773.251-.154 1.151-.042 2.153-.067 3.553-.07 10.26-.005 20.12-.037 30.446-.044 11.858.009 23.25-.2 34.943-4.82.617-9.374 1.085-13.938 1.213-5.696.16-11.4.038-17.107.038 0 12.391 0 23.944-.07 35.958-.206 10.782-.343 21.102-.938 31.382-9.695-.04-18.93-.04-28.654-.04 0 15.021 0 29.415-.452 43.84-10.018.033-19.583.033-29.204.033 0 11.504 0 22.268-.083 33.51-.082 17.515-.082 34.555-.082 51.747 20.213 0 39.637 0 59.53.042 23.495.022 46.524 0 70.017.015 5.47.019 10.474 0 15.951.009 7.509.001 14.546-.023 21.91-.013.762.011 1.198-.013 2.105-.008 20.167.006 39.864-.015 59.89 0 .767.012 1.206-.012 2.114-.007 18.476-.025 36.482-.08 54.86-.064.623.096.874.12 1.054.576-.016 2.783.039 5.133.007 7.92-.062 10.157-.036 19.878-.08 30.057-.071 25.283-.071 50.107-.071 75.306-2.652 0-4.616-.027-6.578.005-8.93.142-17.86.301-27.005.757-.115 14.99-.016 29.676.075 44.784-.005 1.827-.002 3.232-.18 4.992-.112 14.1-.044 27.845-.007 42.021-.005 2.159.019 3.886-.12 6.035-.226 3.468-.288 6.515-.588 9.698-.401.224-.563.31-1.177.236-10.494-.139-20.535-.117-30.85-.197-.465-.054-.655-.008-1.163.038-.654 1.16-1.266 2.316-1.279 3.479a1390 1390 0 0 0-.045 23.914c.095 15.433.243 30.865.224 46.653-.075.856-.004 1.356-.047 2.304-.1 9.79-.086 19.134-.219 28.876-.168 2.134-.19 3.868-.682 5.642-10.382.04-20.294.04-30.57.04 0 12.456 0 24.203-.075 36.41-.029 12.78.016 25.1.016 37.892-.015 11.507.014 22.543.013 34.046-.03 10.038-.03 19.609-.03 29.079h64.939l1.538-62.614h32.455c0-12.047 0-23.493.128-35.332 1.628-.801 3.125-1.536 4.632-1.56 7.162-.114 14.329-.139 21.49.026 2.987.068 4.144-.866 4.068-3.982-.179-7.326-.05-14.66-.048-21.99v-10.887l12.165-.567v-34.85h33.908V971.9c10.399 0 20.19-.098 29.978.054 3.385.052 4.953-.994 4.718-4.559-.35-5.301-.698-10.62-.631-15.926.073-5.734.625-11.462.998-17.703h32.911V898.95h36.092v-37.533c6.728-.956 6.731-.956 6.707-7.154-.01-2.332-.054-4.664-.057-6.997-.008-6.925-.003-13.85-.003-21.324h34.304v-36.239h23.446v-36.905h49.67v-37.08h32.833v-33.84c8.82 0 17.085-.161 25.339.07 4.04.113 5.549-1.118 5.507-5.363-.182-18.324-.062-36.651-.028-54.977.003-1.756.176-3.512.288-5.594 12.541 0 24.516-.088 36.489.058 3.208.04 4.413-.907 4.34-4.238-.195-8.993.163-18.002-.204-26.984-.197-4.796 1.586-5.96 6.059-5.825 9.653.291 19.325.207 28.982-.037 1.358-.034 3.762-1.75 3.84-2.821.935-12.971 1.653-25.962 2.154-38.958.28-7.25.05-14.52.05-22.335h32.041c0-25.353 0-50.13.444-74.91 3.47-.318 6.496-.633 9.96-.951 2.48-.008 4.522-.014 6.864.265 3.425.418 6.626.2 9.647.836 1.48.311 3.644 2.122 3.75 3.4.462 5.517.308 11.088.32 16.639.024 9.943-.081 19.889.105 29.829.026 1.372 1.41 2.718 2.165 4.077.074 4.329.149 8.657-.257 13.5-.979 1.078-1.903 1.638-1.91 2.209-.1 7.728-.132 15.459.016 23.186.014.714 1.37 1.403 2.104 2.104"/><path fill="#020b1b" d="M621.323 288.071c.066 4.978.132 9.957-.177 15.6-.184 1.91.008 3.156.2 4.402.04 9.312.08 18.623-.258 28.661-.178 3.262.022 5.798.222 8.334.008 2.125.015 4.25-.519 6.84-8.255.47-15.969.475-23.725.213-.397-.708-.753-1.148-1.108-1.589-.356.621-.713 1.242-1.383 1.95-.728.195-1.143.302-1.83.32-.426.022-.581.13-.962.166-.225-.074-.674.075-.858.128-.26.154-.422.306-.397.348.12.203.292.377.539 1.013.034 4.147-.027 7.842-.345 11.775-.086 1.75.087 3.262.344 5.23.026 4.482-.031 8.507-.371 12.832-.098 4.437.086 8.575.358 13.123-.091 3.085.06 5.5 3.539 5.255-.366.255-.524.344-.607.48-.08.13-.083.309-.12.467.765.117 1.53.336 2.293.336 63.7.014 127.398.02 191.097-.053 1.262-.002 2.524-.938 4.17-1.53 1.432-.013 2.477.065 3.538.576.055 4.759-.54 9.207.272 13.381 1.551 7.98 1.3 15.441-3.71 22.478-9.776.076-19.087.091-28.872.027-23.256-.092-46.039-.137-68.82-.105-22.946.032-45.89.14-69.298.136-42.475.394-84.488.868-126.479.86.036-9.632.04-18.784.068-27.935.02-6.69.034-6.695 6.963-6.695 15.475-.001 30.95.012 46.424-.008 1.753-.002 3.505-.182 6.145-.328V322h30.421c0-18.126 0-35.568.028-53.462.011-3.477-.006-6.501-.032-9.985-.009-3.375-.009-6.29-.009-10.154h32.099c0-2.76 0-4.553.207-6.606.191-1.126.176-1.992.27-3.253-.114-4.127-.338-7.86-.413-11.95.058-5.412-.033-10.468.1-15.843.204-2.437.187-4.557.283-7.133.04-4.86-.033-9.265.013-14.021.04-1.08-.04-1.808-.006-2.983.268-3.364.423-6.28.605-9.693h32.021v-64.064h32.689V39.068s.055-.054.392-.04c.746.015 1.155.015 1.564.016 9.393-.049 18.785-.097 28.709.373.541 33.198.532 65.877.612 98.556.005 2.034.716 4.066 1.098 6.098.054.717.108 1.433-.17 2.604-.633.881-.936 1.308-1.24 1.735-2.642.067-5.285.133-8.556-.201-6.233-.2-11.837-.001-17.44.198-1.55.602-4.44-.822-4.482 3.258-.681 1.155-1.17 1.74-1.172 2.327-.056 13.416-.088 26.832-.009 40.248.006.946.905 1.887 1.39 2.83.048.717.096 1.434-.274 2.66-.669 2.436-1.287 4.401-1.096 6.284.437 4.302-1.415 5.537-5.447 5.277-1.934-.124-3.935.785-5.905 1.226-2.646.047-5.292.093-8.544-.27-4.248-.711-8.15-3.024-11.234.97-.008 21.283-.016 42.566-.542 64.38-9.32.553-18.122.5-26.92.663-1.606.03-3.196.94-4.793 1.444 0 0 .03.168-.402.3-.338 2.778-.243 5.422-.148 8.067"/><path fill="#38383d" d="M686.983 8.66c-.398-.46-.677-1.232-1.235-2.65-1.93-.764-3.58-.982-5.23-.982-129.804-.009-259.607 0-389.41.007 1.256-.387 2.511-1.11 3.767-1.111 129.88-.055 259.76-.056 389.64-.054.654 0 1.307.083 2.384.155.07 1.49.137 2.907.084 4.636"/><path fill="#1d1f24" d="M545.503 861.04c.973-.635 2.394-1.86 3.85-1.903 6.99-.207 13.991-.076 20.988-.103 3.61-.014 7.67-3.512 6.398-6.562-1.645-3.949.27-7.103.287-10.6.018-3.832-.003-7.664.002-11.495.01-9.536.654-9.748 10.082-8.636 6.077.718 12.305.218 18.465.165 3.649-.032 5.757-2.916 5.95-5.633.381-5.334.11-10.854-.895-16.105-.89-4.647-.88-8.758 1.826-12.661.428-.619 1.259-1.317 1.934-1.35a479 479 0 0 1 16.791-.54c6.358-.085 12.718-.02 20.127-.02-1.285-1.826-2.192-2.604-2.426-3.548-.562-2.274-1.843-5.14-.994-6.854 2.886-5.83 3.116-11.216-.415-16.968-2.173-3.538 1.55-8.068 6.933-8.16 7.494-.127 14.993.002 22.49-.052 4.733-.034 5.51-1.431 5.016-6.193-.437-4.207-.019-8.497-.09-12.748-.052-3.131-.039-6.295-.492-9.38-.729-4.956 2.125-7.49 7.188-7.09 6.722.53 13.503.297 20.258.457 1.135.027 2.263.383 3.75.744-1.291.518-2.935 1.167-4.588 1.19-7.8.11-15.603.05-24.006.05v34.67h-32.643v35.514h-37.862v35.766H578.75v38c-11.307 0-22.045 0-33.246.045"/><path fill="#d6d7d9" d="M286.037 745.816c-1.71.368-3.422 1.059-5.133 1.06q-120.842.074-241.684-.008c-1.71 0-3.42-.664-4.73-1.29 1.561-.224 2.723-.136 3.884-.135 65.928.016 131.856.005 197.784.052 16.627.011 33.253.209 49.88.32"/><path fill="#000006" d="M291 5.268c129.911-.24 259.714-.249 389.518-.24 1.65 0 3.3.218 5.222.657-130.788.329-261.847.333-393.598.341-.692.003-1.128-.024-1.128-.024-.041-.167-.082-.334-.015-.734"/><path fill="#1d1f24" d="M726.381 651.931c-.18-.56-.03-1.327.267-1.389a732 732 0 0 1 14.417-2.814c2.512-.468 4.136-1.327 4.048-4.474-.217-7.781-.085-15.572-.064-23.36.016-6.058 1.732-7.438 7.95-6.842 4.603.441 9.237.55 13.842.977 3.337.31 4.327-1.1 4.234-4.303-.19-6.48-.086-12.97-.043-19.454.036-5.364 1.835-7.263 7.14-7.185 2.546.037 5.083.622 7.735 1.333-3.681.373-7.473.373-11.776.373v30.484h-26.855v36.775c-7.035 0-13.765 0-20.895-.12"/><path fill="#000006" d="M286.445 745.713c-17.034-.01-33.66-.207-50.287-.218-65.928-.047-131.856-.036-197.784-.052-1.161 0-2.323-.09-3.94-.266-.419-.58-.382-1.033-.22-1.802.53-.058.935.202 2.037.542 85.38.082 170.065.084 254.749.085-.018.46-.036.92-.039 1.724-1.36.192-2.733.038-4.516-.013"/><path fill="#38383d" d="M718.479 143.696c-.554-1.657-1.265-3.69-1.27-5.723-.08-32.679-.07-65.358-.146-98.502.528.764 1.637 1.992 1.639 3.222.052 33.542-.01 67.085-.223 101.003"/><path fill="#000006" d="M191.55 1008.183c.449 55.73.452 111.518.431 167.305 0 1.644-.25 3.287-.682 5.224-.42-1.52-.648-3.333-.648-5.146q-.014-81.204.034-162.408c.001-1.64.27-3.28.864-4.975"/><path fill="#d6d7d9" d="M220.539 1215.33c1.13-.043 2.06.391 2.99.39 23.346-.036 46.692-.118 70.502-.398-.336.409-1.134 1.559-1.936 1.562-23.19.105-46.381.108-69.572.046-.73-.002-1.456-.864-1.984-1.6"/><path fill="#000006" d="M94.472 408.747c.468 21.37.518 42.758.468 64.146-.003 1.3-.806 2.6-1.638 3.988-.294-17.233-.242-34.554-.047-51.874.061-5.416.507-10.828 1.217-16.26"/><path fill="#d6d7d9" d="M374.354 1115.52c-.094-8.782.106-17.37.263-25.958.057-3.118.01-6.237.01-10.167 8.442 0 16.506 0 25.015-.187-.355.458-1.138 1.637-1.956 1.662-5.306.164-10.636.335-15.926-.007-4.422-.286-6.168.906-5.931 5.702.409 8.279.178 16.593.06 24.89-.021 1.425-.819 2.84-1.535 4.065"/><path fill="#38383d" d="M812.006 438.994c-2.043.005-4.085.01-7 .002-3.404-.411-7.396 1.317-7.615-2.907-.311-6 .338-12.05.576-18.079v19.964c10.538 0 20.27 0 30.386.065.385.064.343.55-.176.759-5.736.204-10.954.2-16.17.196"/><path fill="#d6d7d9" d="M323.048 1154.101c1.038-.404 2.402-1.152 3.777-1.174 7.414-.118 14.831-.056 22.712.01-1.32 1.367-3.044 3.67-4.903 3.785-6.01.373-12.077.06-18.105-.285-1.091-.062-2.103-1.526-3.481-2.336"/><path fill="#38383d" d="M686.765 196.615c-.622-.488-1.521-1.43-1.527-2.375-.079-13.416-.047-26.832.01-40.248.002-.587.49-1.172 1.104-1.906.418 14.593.484 29.334.413 44.53"/><path fill="#1d1f24" d="M798.05 417.586c-.321 6.453-.97 12.503-.659 18.503.22 4.224 4.211 2.496 7.177 2.91-2.591.332-5.617.647-9.308.709-1.534-.49-2.402-.725-3.27-.961 4.544-6.977 4.796-14.439 3.245-22.418-.812-4.174-.217-8.622-.272-13.38.179-.5.374-.564.946-.499.379.131.673.323.815.755.507 3.216.872 6 1.238 8.784.057 1.724.114 3.449.088 5.597"/><path fill="#d6d7d9" d="M432.313 1043.422c-.03-6.445.284-12.678.42-18.915.12-5.46.199-10.931-.015-16.385-.113-2.88 1.152-3.427 3.93-2.967.22 1.179.037 2.254-.204 3.666l-2.48-2.137c0 11.266.05 22.033-.06 32.799-.015 1.387-.863 2.767-1.591 3.94"/><path fill="#1d1f24" d="M713.096 684.599c-.438-3.312-.922-7.007-1.02-10.714-.152-5.772-.068-11.552-.034-17.328.036-6.246 2.674-7.874 8.876-5.112-2.173.556-4.444.752-7.694 1.032 0 10.675 0 21.204-.128 32.122"/><path fill="#d6d7d9" d="M290.293 747.981c.462 10.843.535 21.728.488 33.025-.966.277-2.557.146-2.557.007-.05-10.644.012-21.288.16-31.93.005-.36.99-.707 1.909-1.102"/><path fill="#38383d" d="M622.348 279.662c1.122-.462 2.712-1.372 4.318-1.402 8.798-.163 17.6-.11 26.866-.197-.823.45-2.105 1.387-3.402 1.41-9.1.155-18.204.12-27.782.19M290.886 6.385c.128-.383.564-.356.78-.333a661 661 0 0 1-.45 30.646c-.327-9.763-.393-19.847-.33-30.313"/><path fill="#d6d7d9" d="M29.204 717.382a12.6 12.6 0 0 1 4.598.351c-.658 1.805-1.76 3.274-1.8 4.772-.186 7.086-.083 14.18-.92 21.282 0-5.663-.25-11.34.077-16.984.266-4.6-1.394-6.468-5.975-5.93-1.801.211-3.647.034-5.473.034l.018-1.813c3.01 0 6.022.031 9.03-.062.22-.007.415-.908.445-1.65M290.247 784.981c.482 1.369.554 2.774.644 4.55-7.69 0-14.892 0-22.544-.16 3.573-.535 7.6-1.246 11.615-1.186 3.775.056 7.128-.395 10.285-3.204M350.417 1152.972c-.136-8.046.14-16.122.558-24.574.045 7.93-.05 16.237-.558 24.574"/><path fill="#38383d" d="M674.355 212.665c1.521-.589 3.522-1.498 5.456-1.374 4.032.26 5.884-.975 5.447-5.277-.191-1.883.427-3.848 1.02-5.931.343 3.924.343 8.004.343 12.73-4.016 0-7.916 0-12.266-.148"/><path fill="#1d1f24" d="M798.38 569.687c-2.165-6.156-2.393-12.743-.41-19.56.387 6.275.475 12.726.41 19.56M822.394 547.828c1.432-2.638 3.28-5.173 5.476-7.75.37 2.328.39 4.698.249 7.486-1.879.401-3.594.384-5.725.264"/><path fill="#38383d" d="M691.35 148.569c5.154-.361 10.758-.56 16.558-.445-5.24.412-10.674.51-16.559.445M687.623 38.778c-.144.265-.553.265-1.27.223-.204-5.47-.1-10.9.262-16.646.419 5.174.58 10.666 1.008 16.423"/><path fill="#d6d7d9" d="M6.18 717.376c3.848-.348 7.95-.444 12.424-.397-3.809.311-7.99.48-12.424.397"/><path fill="#1d1f24" d="M713.082 700.608c-.304-3.75-.493-7.876-.398-12.299.36 3.777.436 7.849.398 12.299"/><path fill="#38383d" d="M654.57 213.105c2.641-3.882 6.544-1.569 10.358-.94-3.19.494-6.554.66-10.359.94"/><path fill="#d6d7d9" d="M216.023 1182.492c1.366-.461 2.784-.57 4.632-.71.084 1.675.154 3.062.107 4.867-3.44.96-3.88-1.62-4.739-4.157m3.461 1.89-.1.176s.183-.025.1-.175M323.062 1166.894c-.414-2.903-.536-6.01-.494-9.556.371 2.824.578 6.088.494 9.556"/><path fill="#38383d" d="M798.082 411.63c-.486-2.425-.851-5.209-1.08-8.439.29-.35.445-.256.6-.16.2 2.746.4 5.493.48 8.6"/><path fill="#d6d7d9" d="M256.111 892.929c1.7 4.058-1.12 3.534-3.824 3.332.957-1.2 2.223-2.256 3.824-3.332M198.97 1007.464c-1.672.403-3.415.467-5.583.435 1.155-3.815 3.155-3.868 5.583-.435"/><path fill="#1d1f24" d="M794.271 584.913c.862-1.05 2.015-1.978 3.53-2.93 1.693 3.969-1.218 2.987-3.53 2.93"/><path fill="#38383d" d="M621.478 344.73a38 38 0 0 1-.473-7.539c.41 2.222.525 4.712.473 7.54"/><path fill="#d6d7d9" d="M435.896 1023.102c.015 4.482.015 8.589.015 12.696h-.782c0-4.348-.003-8.695.01-13.042 0-.14.155-.278.237-.417.168.13.337.259.52.763"/><path fill="#38383d" d="M621.492 287.711a37.7 37.7 0 0 1-.106-7.702c.324 2.363.3 4.852.106 7.702"/><path fill="#d6d7d9" d="M295.102 1187.063c-.43-.808-.524-1.663-.452-2.805 1.455.055 2.744.398 4.034.741l-.002 1.266c-1.08.25-2.16.502-3.58.798M221.215 1005.252c1.085 3.838-1.798 2.415-3.846 2.679-.266-1.158-.13-2.227.041-3.56 1.35.304 2.39.54 3.805.88M295.018 1209.935c-.383-1.624-.489-3.41-.429-5.616.346 1.537.526 3.495.43 5.616"/><path fill="#1d1f24" d="M806.395 547.873a14.4 14.4 0 0 1 4.537-.433c-1.32.401-2.723.468-4.537.433"/><path fill="#d6d7d9" d="M3.743 622.25c.313 1.22.384 2.688.336 4.449-.273-1.206-.425-2.705-.336-4.45"/><path fill="#38383d" d="M621.51 307.81c-.356-.983-.548-2.23-.452-3.686.398 1.001.507 2.211.453 3.685"/><path fill="#38383d" d="M717.11 148.564c.09-.58.394-1.008.944-1.538-.08.495-.406 1.093-.945 1.538"/><path fill="#d6d7d9" d="M322.24 1182.019c-.121-.508.029-.981.35-1.786.087.386.003 1.103-.35 1.786"/><path fill="#020b1b" d="M797.57 402.836c-.123.1-.278.004-.71-.077-.278.014-.572-.178-.655-.224-.082-.046.347-.267.569-.362.358.135.539.323.797.663"/><path fill="#d6d7d9" d="M295.116 1182.924c-.065-.272.113-.587.598-.826.176.395-.045.631-.598.826M435.485 1041.47c.034-.018-.034.018 0 0"/><path fill="#1d1f24" d="M812.305 439.278c4.918-.28 10.136-.276 15.79-.251.454 18.057.47 36.093.342 54.58-.9-.907-2.284-2.253-2.31-3.625-.186-9.94-.081-19.886-.104-29.829-.013-5.551.141-11.122-.32-16.638-.107-1.279-2.27-3.09-3.75-3.401-3.022-.636-6.223-.418-9.648-.836M828.389 534.607c-.877-.25-2.234-.939-2.248-1.653-.148-7.727-.117-15.458-.016-23.186.007-.571.931-1.13 1.794-1.762.448 8.671.53 17.41.47 26.6"/><path fill="#097534" d="M791.525 438.807c1.333.176 2.201.412 3.29.904.222 25.033.222 49.81.222 75.163h-32.04c0 7.816.229 15.085-.051 22.335a1167 1167 0 0 1-2.155 38.958c-.077 1.07-2.481 2.787-3.84 2.821-9.656.244-19.328.328-28.981.037-4.473-.135-6.256 1.029-6.06 5.825.368 8.982.01 17.991.206 26.984.072 3.33-1.133 4.278-4.341 4.238-11.973-.146-23.948-.058-36.49-.058-.11 2.082-.284 3.838-.287 5.594-.034 18.326-.154 36.653.028 54.977.042 4.245-1.466 5.476-5.507 5.363-8.254-.231-16.518-.07-25.34-.07v33.84h-32.831v37.08h-49.67v36.905H544.23v36.24h-34.304c0 7.474-.005 14.398.003 21.323.003 2.333.047 4.665.057 6.997.024 6.198.021 6.198-6.707 7.154v37.533h-36.092v34.816h-32.911c-.373 6.24-.925 11.969-.998 17.703-.067 5.306.281 10.625.631 15.926.235 3.565-1.333 4.611-4.718 4.559-9.788-.152-19.58-.054-29.978-.054v35.89h-33.908v34.851l-12.165.567v10.887c-.003 7.33-.131 14.664.048 21.99.076 3.116-1.08 4.05-4.069 3.982-7.16-.165-14.327-.14-21.489-.025-1.507.023-3.004.758-5.022 1.559-1.872-.924-3.887-2.023-4.41-3.614-.631-1.914.037-4.246.083-6.398.026-1.234-.068-2.47-.108-3.706-1.356.188-2.902.025-4.028.636-2.295 1.243-4.402 2.852-6.511 4.411-1.521 1.124-3.427 2.133-4.277 3.68-2.142 3.9-3.536 8.242-8.514 9.676-.736.212-1.385 1.341-1.73 2.186-1.189 2.9-2.055 5.944-3.4 8.763-.538 1.125-2.45 2.752-2.963 2.51-1.445-.682-3.078-2.02-3.554-3.457-.755-2.282-.632-4.856-.892-7.422.326-.232.692-.708 1.109-.758 8.208-.982 11.109-5.901 10.75-13.73-.063-1.353 1.755-2.84 2.81-4.183 1.075-1.369 2.704-2.461 3.332-3.987.995-2.42 1.666-5.074 1.887-7.679.153-1.805-.68-3.694-1.241-6.338l-5.258 4.208c-2.119-1.657-3.87-3.027-5.686-4.85-.158-3.203-.253-5.955-.26-8.693.089.016.224.134.695.14 10.085.006 19.701-.099 29.313.066 3.214.055 4.357-.94 4.305-4.236-.168-10.606-.06-21.217.409-31.827 9.613-.001 18.761.122 27.9-.123 1.538-.041 4.321-1.63 4.352-2.574.32-9.893.198-19.8.198-30.125l-6.209 1.746c-.628-2.143-1.167-3.978-1.265-5.884 2.7-.07 4.958-.07 7.675-.07.271-4.621.516-8.797 1.163-12.894.842 2.706 1.493 5.32 1.67 7.965.216 3.222 1.628 4.94 4.894 4.947 7.458.015 14.92.118 22.371-.112 1.248-.038 3.488-1.538 3.513-2.413.261-9.02.16-18.052.16-27.288-5.322.226-8.473-1.46-8.403-6.628 3.002-.27 5.57-.401 8.79-.565 0-10.256 0-20.103.372-29.835 1.3 9.888 2.23 19.661 3.198 29.851 8.304 0 16.582-.167 24.848.076 3.711.109 4.405-1.454 4.358-4.71-.152-10.458-.06-20.92.023-31.71.08-10.75.005-21.169.152-31.584.02-1.402 1.16-2.788 1.779-3.704-.002 11.529-.003 22.58.084 34.03.59.772 1.087 1.47 1.592 1.475 8.809.09 17.623.224 26.423-.062 1.004-.033 2.721-2.5 2.762-3.877.256-8.638.13-17.286.132-26.18 0-.25 0-.749.348-.802 3.053-3.972 5.963-6.79 11.567-6.102 5.814.712 11.785.225 17.684.124 3.419-.059 6.379-1.09 6.37-5.26-.023-10.473-.168-20.946-.124-31.822.212-10.447.214-20.492.428-30.533.033-1.59 1.022-3.158 1.614-4.339.3 1.494.557 2.59.54 2.518 3.599-.964 6.499-2.235 9.47-2.429 5.613-.364 11.273-.264 16.902-.052 3.282.123 4.309-1.054 4.255-4.288-.17-10.277-.077-20.558.016-31.29.27-5.09.436-9.726.929-14.22.551 2.907.905 5.667.976 8.435.127 4.96 2.41 6.721 7.47 6.083 3.755-.474 7.573-.517 11.366-.618 3.635-.097 7.274-.021 11.187-.021 0-8.63-.006-16.108.003-23.586.004-3.831.728-7.858-2.595-10.702 1.196-1.55 2.624-3.013 2.655-4.506.204-9.736.105-19.478.105-29.918h32.735c0-6.618 0-12.542.314-18.18.472 4.75.79 9.215.73 13.675-.038 2.91.754 4.214 3.925 4.138 7.48-.18 14.97-.15 22.452-.018 2.858.05 3.762-1.07 3.714-3.82-.123-7.15-.02-14.304-.044-21.456-.01-2.714-.12-5.429-.097-8.317.254-.39.47-.527 1.234-.542 8.984.06 17.472.016 25.958.13 2.62.035 4.005-.581 3.952-3.582-.14-7.986-.108-15.977-.011-23.964.03-2.568-.914-3.583-3.502-3.518-4.823.12-9.657.161-14.474-.052-1.366-.06-2.688-1.116-3.57-1.798 7.398-.084 14.336-.084 21.809-.084v-36.183h33.12c0-22.912 0-45.35.443-67.824 10.856-.036 21.271-.036 32.27-.036v-36.148h44.002v-36.93c9.31-.016 18.621-.031 28.397-.107"/><path fill="#097634" d="M620.104 211.065c.09 5.057.18 10.113-.186 15.813-.1 4.447.257 8.252.613 12.057.015.866.03 1.732-.596 2.84-3.694.108-6.694-.059-8.055 3.671-.25.688-1.435 1.43-2.217 1.461-3.709.153-7.427.069-10.606.069-.409-3.294-1.524-5.989-.78-7.993.8-2.153 3.453-3.569 5.063-5.501.477-.573.164-1.804.213-2.733-1.202.009-2.78-.47-3.537.115-2.564 1.98-5.257 4.032-7.125 6.617-2.907 4.024-5.12 8.544-7.731 12.789-3.092 5.024-2.706 6.298 2.922 8.742.017 3.025.034 6.049-.369 9.534-1.678.64-2.936.818-4.19.996-2.024-13.184-2.671-13.94-12.893-15.155-2.436 5.877-2.64 13.229-10.018 16.062-.23.089-.432.548-.45.846-.26 4.285-3.403 3.685-6.205 3.709-5.747.05-5.625.03-4.338 5.584.33 1.427-.005 3.329-.774 4.545-.345.544-2.512-.096-3.854-.141-1.535-.051-3.08-.15-4.606-.03-4.107.32-5.759-1.545-5.071-5.578.384-2.258 1.016-4.743.438-6.82-.558-2.006-2.381-3.784-4.024-5.239-.265-.235-2.481 1.73-3.876 2.216-.25-9.505-.42-18.546-.447-27.967-.364-7.136-.87-13.892-1.394-21.088.024-2.79.068-5.14.29-7.579.406-.23.583-.42 1.172-.702 9.69-.041 18.916-.041 28.677-.041v-35.339c8.31 0 16.073 0 24.276.074 2.82.039 5.2.004 7.954-.175.498-2.025.62-3.906.801-6.202.03-2.092.002-3.768.025-5.886.12-17.159.189-33.876.43-50.839.64-.617 1.105-.989 1.98-1.308 9.405.181 18.402.31 27.686.35.388-.654.49-1.222.644-2.247.143-5.875.232-11.292.48-17.144.094-5.736.03-11.04.105-16.733.269-1.489.4-2.587.996-3.679 9.623.008 18.782-.016 27.94.03 2.181.011 4.165.035 3.553-3.53.044-3.485.033-6.519.065-9.88.013-.766-.018-1.205 0-2.1.012-3.827-.023-7.196-.01-10.991.025-2.14.003-3.853.023-5.89a13 13 0 0 0-.122-1.612c10.678-.011 21.356-.023 32.495-.014.46 24.458.46 48.897.46 73.804h-32.688v64.064h-32.021c-.182 3.413-.337 6.329-.87 9.758-.202 1.432-.025 2.35.152 3.27.073 4.404.146 8.808-.209 13.777-.349 2.824-.27 5.084-.191 7.343"/><path fill="#0a7634" d="M181.965 709.05c-5.005.018-10.01.036-15.772-.286-2.554-.481-4.35-.743-6.146-.746-20.681-.03-41.362-.021-61.993-.43.34-2.689.925-4.978.865-7.25-.152-5.781-.592-11.555-.672-17.34.244-.009.733-.03 1.203-.02 18.55.013 36.634-.162 54.71.137 4.952.081 6.225-1.532 5.937-6.198-.388-6.28-.105-12.601.36-18.91 66.527 0 132.584.004 198.783.395.27 9.855.51 19.325.488 28.794a257 257 0 0 1-1.021 22.282c-11.73-.175-22.998-.262-34.266-.35-.251-.024-.502-.048-1.423-.423-18.234-.447-35.797-.553-53.36-.6-.557-.002-1.114.596-1.671.914-.44.024-.878.048-1.94-.265-1.263-.472-1.905-.727-2.547-.727-17.952-.025-35.904-.044-53.856.018-1.222.004-2.441.64-3.662.982-.437.023-.873.047-1.93-.267-7.775-.128-14.93.08-22.087.29"/><path fill="#8bd84b" d="M652.965 69.986c.667 3.115-1.317 3.091-3.498 3.08-9.158-.046-18.317-.022-28.36-.093-2.332-.37-3.778-.927-5.225-.93-11.109-.012-22.217.084-33.754.119-62.024-.041-123.62-.039-185.215-.078-20.306-.013-40.612-.133-60.97-.583-1.428-5.82-6.387-2.226-9.947-4.462 0-4.885.186-10.242-.1-15.574-.1-1.858-1.368-3.652-2.103-5.475-.037-1.061-.075-2.122.274-3.822 2.35-.816 4.312-1.148 6.275-1.149 50.092-.028 100.184-.048 150.276.02 4.783.007 9.562.691 14.35.895 6.085.26 12.184.6 18.266.44 6.009-.157 12.002-1.294 18.004-1.312 40.606-.123 81.212-.064 121.818-.063.022 1.713.044 3.426-.277 5.849-.143 4.194.057 7.68.257 11.165.03.438.062.877-.246 1.92-.168 3.754.004 6.904.175 10.053"/><path fill="#dffcb7" d="M159.018 441.877c.047-1.725.093-3.45.391-5.811.12-1.727-.01-2.818-.141-3.908-.04-6.774-.079-13.547.073-20.848.35-.87.255-1.098-.097-1.21-.028-.428-.055-.856.274-1.598.73-.366 1.103-.417 1.881-.375 9.528.302 18.65.622 27.769.545.915-.007 2.488-2.362 2.592-3.716.355-4.63.19-9.3.648-13.955 2.928-.162 5.56.707 6.818-2.982 2.589-7.599 1.016-10.01-7.3-10.394-.133-1.112-.231-1.851-.238-2.972.025-.89-.04-1.399-.105-1.908 0 0 .147-.008.45-.04.527-.588.752-1.145 1.374-1.704 1.974-.16 3.55-.32 5.107-.477l1.236 5.627c3.495-.18 5.24-10.965 9.692-.215l3.737-10.864c-2.771-.702-5.27-1.425-7.813-1.938-1.138-.23-2.633.375-3.457-.17-.632-.417-.966-2.352-.532-3.053.57-.92 1.992-1.724 3.109-1.812 3.06-.242 6.151-.084 9.4-.084.556 1.1.922 2.744 1.94 3.679 5.274 4.843 5.144 10.97 4.322 17.234-.804 6.128 1.875 11.118 4.904 16.533.08 8.867.08 17.27.08 26.49-11 0-21.563 0-32.384.038-.346.351-.435.664-.598 1.431-.025 12.16.025 23.867-.002 35.913.01 1.489.097 2.638.093 4.132-.069 2.077-.047 3.809-.105 5.976-.104 2.791-.128 5.148-.596 7.576-3.133.189-5.823.305-8.936.313-2.166-.03-3.907.048-6.099.027-4.455-.063-8.46-.025-12.804-.092-1.145.167-1.95.439-2.85 1.163-.06 3.845-.025 7.237-.08 11.088-.024 6.46.04 12.463.034 18.901-.021 2.491.028 4.546-.012 7.06-.035 5.475.02 10.492.007 15.96-.013 3.508.043 6.564.006 10.048-.207 2.667-.32 4.905-.445 7.378-10.888 0-21.142 0-31.532-.216-.429-.384-.72-.552-.93-1.177-.001-12.451-.086-24.446-.17-36.44-.053-11.393-.106-22.786.26-34.675.629-.55.838-.601 1.505-.558 8.996.137 17.537.27 26.074.132 1.398-.022 2.776-1.234 4.237-2.315.028-1.827-.018-3.236.001-5.107.111-4.622.303-8.786.16-12.94-.156-4.568-.619-9.127-.948-13.69"/><path fill="#097233" d="m290.072 1052.001 5.622 4.398 5.258-4.208c.56 2.644 1.394 4.533 1.24 6.338-.22 2.605-.89 5.259-1.886 7.679-.628 1.526-2.257 2.618-3.332 3.987-1.055 1.343-2.873 2.83-2.81 4.183.359 7.829-2.542 12.748-10.75 13.73-.417.05-.783.526-1.109.758.26 2.566.137 5.14.892 7.422.476 1.437 2.109 2.775 3.554 3.457.512.242 2.425-1.385 2.962-2.51 1.346-2.819 2.212-5.862 3.4-8.763.346-.845.995-1.974 1.731-2.186 4.978-1.434 6.372-5.776 8.514-9.676.85-1.547 2.756-2.556 4.277-3.68 2.11-1.559 4.216-3.168 6.51-4.411 1.127-.611 2.673-.448 4.029-.636.04 1.235.134 2.472.108 3.706-.046 2.152-.714 4.484-.084 6.398.524 1.59 2.539 2.69 4.283 4.007.39 11.446.39 22.892.39 34.939h-32.455l-1.538 62.614h-64.939c0-9.47 0-19.04.5-29.079a393 393 0 0 1 27.341-.409c3.245.063 4.337-1.003 4.28-4.264-.17-9.94-.068-19.884-.054-30.293.017-12.468.015-24.47-.003-36.48-.017-.009-.019.027.448-.034 11.376-.061 22.285-.061 33.62-.061z"/><path fill="#dcfcb3" d="M127.816 547.926c.292.169.584.337.971 1.2.146 15.093.198 29.494.241 43.878-.007-.016-.041-.024-.505.04-9.848.064-19.23.064-28.943.064v30.672c10.021 0 19.76 0 29.956.067 6.145.015 11.832-.037 17.97-.003 4.438.156 8.424.224 12.45.752.042 10.81.046 21.162-.395 31.644-4.11.273-7.775.416-11.889.4a61 61 0 0 0-5.433-.227c-24.761-.044-49.523-.082-74.344-.608-.073-5.952.043-11.421-.138-16.881-.168-5.084-.652-10.158-.997-15.236V579.88c9.724 0 18.96 0 29.06-.034 1.308-1.667 2.109-3.295 2.131-4.933.124-8.98.056-17.964.522-26.979 10.093-.024 19.718-.016 29.343-.008"/><path fill="#abf381" d="M290.718 873.026c-.002-1.405-.005-2.81.126-5.08.094-15.457.053-30.05.013-44.644 8.93-.153 17.86-.312 26.791-.454 1.962-.032 3.926-.005 6.578-.005 0-25.199 0-50.023.245-75.288.244-.44.592-.479.881-.192.41 11.73.261 23.184.719 34.613.594 14.827-2.13 29.817 1.669 44.54-4.326-.22-3.445 2.695-3.45 4.847-.079 32.328-.131 64.657-.129 96.985 0 1.58.554 3.158.73 4.938-.54.375-.96.547-1.747.454-11.562-.254-22.758-.24-33.985-.557-.04-.77-.05-1.21-.06-1.65.161-.088.323-.174 1.037-.648.514-3.547.476-6.708.438-9.869-.024-1.728-.048-3.455.114-5.979.135-14.534.082-28.273.03-42.011"/><path fill="#108f37" d="M67.954 656.29q37.143.06 74.285.123c1.662.003 3.323.043 5.6.534 4.46.667 8.304.866 12.148 1.065.005 6.304-.278 12.625.11 18.905.288 4.666-.985 6.28-5.936 6.198-18.077-.3-36.16-.124-54.705-.602-.461-6.468-.257-12.471-.53-18.453-.174-3.832.873-5.302 4.98-5.151 8.48.31 16.979.09 25.47.089H145.8c-25.132-.998-50.242-.961-75.352-1.044-3.112-.01-3.504 1.55-3.474 4.055.082 6.992.027 13.986.026 21.449.17 8.327.34 16.185.52 24.544 10.302 0 19.388 0 28.476.252l.005.756H36.94c0-17.192 0-34.232.544-51.716 10.52-.631 20.495-.817 30.471-1.003"/><path fill="#e3fcba" d="M256.7 216.707c-.063-12.896-.127-25.792.309-39.21 11.377-.5 22.255-.48 33.305-.484.17-.025.513-.063.513.41-.013 22.63-.124 44.789.05 66.944.032 4.197-1.284 5.845-5.402 5.255-.813-.117-1.662.013-2.843-.092-2.11-.148-3.87-.176-6.018-.27-2.797.1-5.205.267-7.987.283-3.78-.277-7.187-.403-10.8-.525-.208.004-.623.027-.681-.443-.187-10.936-.316-21.402-.445-31.868M257.204 249.045s.415-.023.553.435c.16 5.812.181 11.165.157 16.985-.022 8.157.003 15.847-.018 24.004-.014 9.154.016 17.841.007 26.862-.01.78.02 1.225.006 2.038-.05 1.104-.055 1.841-.427 2.755-2.155.32-3.943.557-5.734.595-8.885.19-17.77.327-26.68.191-.036-.485-.046-.68-.081-1.346-.132-10.932-.24-21.392-.347-31.852-.022-13.246-.043-26.493.52-40.206 11.072-.466 21.558-.463 32.044-.461"/><path fill="#76d85f" d="M255.6 1007.114c-.07-.5-.142-1 .257-2.013.692-2.273 1.104-4.033 1.108-5.794.05-20.578-.01-41.157.145-61.734.012-1.516 1.43-4.306 2.265-4.333 9.382-.312 18.777-.197 27.605-.197.977 3.87 1.742 6.9 2.608 10.316.207 9.112.312 17.838.373 27.036-.018 12.47.009 24.468.039 36.539.004.073-.142.084-.601.092-11.573.034-22.686.061-33.798.088"/><path fill="#e7fcbf" d="M290.827 176.95s-.343.038-.551-.405c.004-7.818.216-15.193.84-22.557.897.06 1.465-.037 1.858.18 2.804 1.551 5.188.333 6.03-2.05.567-1.606-.494-4-1.3-5.833-1.386-3.155-4.27-3.634-7.534-3.436-.166-.075-.53-.095-.53-.095-.128-11.972-.257-23.944.111-36.31 11.409-.413 22.321-.432 33.605-.398.617.096.863.139 1.013.591-.054 2.398-.012 4.386-.066 6.831-.028 20.146.04 39.834.01 59.89-.165 1.125-.234 1.883-.51 2.732-.475.259-.665.488-1.248.834-10.887.044-21.308.035-31.728.026"/><path fill="#e3fcba" d="M225.011 322.036c.01.194.021.389.088 1.322.118 24.08.179 47.422.154 70.985-.086.221-.281.655-.281.655-2.949-4.952-5.628-9.942-4.824-16.07.822-6.265.952-12.391-4.322-17.234-1.018-.935-1.384-2.58-1.94-3.679-3.249 0-6.34-.158-9.4.084-1.117.088-2.539.893-3.109 1.812-.434.701-.1 2.636.532 3.054.824.544 2.32-.06 3.457.169 2.542.513 5.042 1.236 7.813 1.938l-3.737 10.864c-4.452-10.75-6.197.035-9.692.215l-1.236-5.627c-1.557.157-3.133.316-5.406.476-.895 0-1.094-.001-1.293-.002-.088-.636-.177-1.272.037-2.636.584-2.504 1.105-4.279 1.114-6.056.063-13.116.025-26.232.042-39.552.023-.204.074-.611.537-.625 6.774.093 13.086.2 19.328.605-.402 1.693-1.47 3.62-.922 4.38 1.364 1.889 4.133 4.9 5.138 4.493 2.517-1.017 4.368-3.68 6.608-5.799-2.182-1.583-3.407-2.472-4.218-3.462 2.119-.171 3.826-.24 5.532-.31"/><path fill="#b2f68a" d="M255.486 1007.562a422 422 0 0 1 33.864-.07c.48 12.137.551 23.817.622 35.498 0 0-.135-.118-.664-.081-11.448.052-22.367.068-33.365-.147-.078-.23-.215-.697-.136-1.085-.078-2.137-.235-3.888-.393-5.638-.014-9.343-.028-18.686.072-28.477"/><path fill="#3fb84b" d="M256.02 1079.03c.001 12.001.003 24.004-.481 36.481-10.837.464-21.188.451-31.539.439-.044-12.32-.089-24.64.327-37.271 2.25-.108 4.04.255 5.833.271 8.619.078 17.24.062 25.86.08"/><path fill="#13973c" d="M256.003 1079.021c-8.604-.009-17.224.007-25.843-.07-1.793-.017-3.582-.38-5.76-.732-.386-11.896-.386-23.643-.386-36.1 10.277 0 20.189 0 30.74-.036.638-.036.974-.018.974-.018s.137.467.158 1.164c.047 12.405.073 24.112.098 35.82 0 0 .002-.036.019-.028"/><path fill="#9add56" d="M290.704 153.977c-.212 7.375-.424 14.75-.599 22.593-10.84.447-21.719.427-33.012.496-.415-11.12-.415-22.33-.415-34.33 10.71 0 21.389 0 32.515.009.447.01.811.029.882.549.257 3.907.443 7.295.629 10.683"/><path fill="#8fd753" d="M127.9 547.47c-9.71.448-19.334.44-29.694.434-1.085.06-1.435.116-1.784.173V512.58c5.708 0 11.411.121 17.107-.038 4.564-.128 9.118-.596 13.938-1.213.346 11.695.43 23.69.432 36.141"/><path fill="#a2e65b" d="M322.985 105.993c-10.913.019-21.825.038-33.18.041-.442-10.79-.442-21.564-.442-33.004 11.25 0 21.973 0 33.2.058.503.058.616.248.563.688-.083 11.033-.112 21.625-.141 32.217"/><path fill="#0b7f36" d="M223.956 1116.422c10.395-.46 20.746-.447 31.564-.444.472 9.933.37 19.877.54 29.817.057 3.26-1.035 4.327-4.28 4.264-8.944-.173-17.895-.059-27.311-.059-.499-11.035-.528-22.07-.513-33.578"/><path fill="#a2e35d" d="M212.942 322.435c-6.311-.106-12.623-.213-19.77-.343-1.085-.018-1.334-.011-1.583-.004v-32.1c10.841 0 21.523 0 32.628-.138.53 10.322.638 20.782.77 31.714-1.682.541-3.389.61-5.938.666a287 287 0 0 0-6.107.205"/><path fill="#a0e25a" d="M257.146 248.575c-10.428.468-20.914.465-31.884.475-.585-10.127-.687-20.266-.076-30.726 6.997-.424 13.281-.526 19.565-.628 3.703-.222 7.405-.443 11.529-.827.55 10.304.679 20.77.866 31.706"/><path fill="#76cf53" d="M67.895 655.805c-9.917.672-19.893.858-30.33 1.013-.461-10.797-.461-21.56-.461-33.065 9.62 0 19.186 0 29.204-.032a124 124 0 0 1 1.45 15.203c.18 5.46.064 10.93.137 16.88"/><path fill="#9ae254" d="M158.747 441.892c.6 4.548 1.063 9.107 1.22 13.676.142 4.153-.05 8.317-.536 12.95-1.74 1.499-3.04 2.524-4.338 3.55l4.638 1.964c-1.387.663-2.765 1.875-4.163 1.897-8.537.138-17.078.005-26.086-.572-.47-10.617-.47-20.699-.47-29.985l4.948-3.138c1.743-.076 3.486-.151 5.759.254 6.111.73 11.694 1.008 17.28 1.164.314.009.657-.986.987-1.514.163-.077.327-.155.761-.246"/><path fill="#72d258" d="M324.37 709.56a421 421 0 0 1 34.298.333 290 290 0 0 1 1.03 25.722c-1.629.501-2.904.895-4.68 1.313-6.14.039-11.778.064-17.418.067-11.584.008-11.49.001-11.662-11.751-.04-2.74-.96-5.467-1.474-8.2-.055-2.351-.11-4.701-.094-7.484"/><path fill="#85d64c" d="M653.098 40.676c-40.648.322-81.254.263-121.86.386-6.002.018-11.995 1.155-18.004 1.312-6.082.16-12.18-.18-18.266-.44-4.788-.204-9.567-.888-14.35-.895-50.092-.068-100.184-.048-150.276-.02-1.963.001-3.925.333-6.174.838.141-.71.332-2.379 1.046-2.645 1.32-.492 2.947-.173 4.446-.173 107.46-.018 214.921-.033 322.849-.012.521.466.576.896.589 1.649"/><path fill="#84de5f" d="M324.377 717.48c.602 2.297 1.52 5.024 1.56 7.764.173 11.752.08 11.759 11.663 11.751 5.64-.003 11.279-.028 17.473.33.565 3.165.576 5.955.146 8.72-8.832-.035-17.224-.1-25.613-.01-1.518.017-3.029.678-4.543 1.041 0 0-.348.04-.522.02-.2-9.738-.226-19.459-.164-29.616"/><path fill="#0b1524" d="M290.707 743.704c-84.391.297-169.075.295-254.226.287 1.094-.334 2.655-.95 4.217-.95 81.929-.046 163.857-.043 245.786-.024 1.31 0 2.62.254 4.223.687"/><path fill="#8fe66f" d="m289.487 942.972-2.507-9.93c-8.828 0-18.223-.114-27.605.198-.836.027-2.253 2.817-2.265 4.333-.156 20.577-.095 41.156-.145 61.734-.004 1.761-.416 3.521-.963 5.439-.45-15.276-.598-30.708-.693-46.14a1390 1390 0 0 1 .045-23.915c.013-1.163.625-2.32 1.38-3.323.725.073 1.03-.01 1.337-.092 10.04-.022 20.081-.044 30.575.095.463.602.473 1.042.554 2.184.143 3.607.215 6.512.287 9.417"/><path fill="#a2e35d" d="M160.993 408.033c-.372.052-.745.103-1.4.155-.283-11.257-.283-22.513-.283-35.072 10.547 0 21.062 0 31.924-.185.414.323.48.832.025 1.71-8.661.366-16.81.555-24.942.277-4.02-.138-5.56.9-5.416 5.203.312 9.295.094 18.607.092 27.912"/><path fill="#85d64c" d="M323.64 46.435c.888 1.378 2.155 3.172 2.255 5.03.287 5.332.101 10.69.101 15.574 3.56 2.236 8.519-1.359 9.494 4.522-4.373.884-8.342 1.33-12.311 1.775 0 0-.113-.19-.15-.294.127-8.79.292-17.476.61-26.607"/><path fill="#e7fcbf" d="M192.984 322.958c.007 13.116.045 26.232-.018 39.348-.009 1.777-.53 3.552-.967 5.764-.299-14.492-.444-29.42-.133-44.733.677-.383.898-.381 1.118-.38"/><path fill="#0d8238" d="M96.468 709.052c-.468-.21-.47-.378-.137-.799a4.7 4.7 0 0 1 1.673-.258c20.68.002 41.362-.007 62.043.023 1.796.003 3.592.265 5.681.71-22.735.324-45.764.346-69.26.324"/><path fill="#e7fcbf" d="M96.352 548.538c.42-.518.77-.574 1.386-.601.27 9.012.337 17.995.213 26.976-.022 1.638-.823 3.266-1.671 4.973-.27-10.246-.134-20.566.072-31.348"/><path fill="#0d8238" d="M206.452 709.055c.75-.37 1.97-1.006 3.192-1.01 17.952-.062 35.904-.043 53.856-.018.642 0 1.284.255 2.22.691-19.404.322-39.101.343-59.268.337"/><path fill="#a2e35d" d="M133.544 442.136c-.979.983-2.374 1.867-4.531 3.236 0 9.286 0 19.368.012 29.89-.198.492-.407.544-.939.627-.387-9.829-.452-19.69-.325-30.363.22-1.638.249-2.463.276-3.288 1.697-.067 3.394-.134 5.507-.102"/><path fill="#0d8238" d="M268.456 709.048c.088-.347.645-.945 1.201-.944 17.564.048 35.127.154 52.99.53-17.709.333-35.715.389-54.19.414"/><path fill="#3cb53d" d="M290.643 823.605c.254 14.29.295 28.884.209 43.92-.225-14.244-.324-28.93-.209-43.92M290.539 873.381c.231 13.383.284 27.122.179 41.225-.224-13.38-.292-27.125-.18-41.225"/><path fill="#a2e35d" d="M157.526 442.05c.13.616-.213 1.61-.528 1.602-5.585-.156-11.168-.433-16.853-1.062 5.572-.461 11.247-.545 17.38-.54"/><path fill="#0d8238" d="M182.437 709.076c6.684-.235 13.84-.444 21.29-.35-6.744.327-13.781.351-21.29.35"/><path fill="#9add56" d="M244.322 217.559c-5.855.239-12.14.341-18.895.432 5.841-.197 12.154-.383 18.895-.432"/><path fill="#3cb53d" d="M290.41 921.437c.202 2.74.24 5.9-.035 9.312-.252-2.797-.19-5.844.036-9.312"/><path fill="#3fb84b" d="M255.807 1041.677c-.079.388-.415.37-.583.366-.146-1.737-.125-3.471.043-5.605.305 1.351.462 3.102.54 5.24"/><path fill="#a2e35d" d="M159.143 432.513c.255.735.386 1.826.322 3.124-.28-.784-.363-1.776-.322-3.124"/><path fill="#8fd753" d="M127.771 442.387c.239.676.21 1.5.126 2.74-.168-.587-.28-1.589-.126-2.74"/><path fill="#e7fcbf" d="M191.694 371.301c.32-.302.519-.302 1.017-.3.074.559-.151 1.116-.67 1.778-.351-.322-.41-.748-.347-1.478"/><path fill="#c4fa97" d="M193.008 322.754c-.244.202-.465.2-1.017.183-.33-.014-.556-.416-.48-.633.327-.223.576-.23 1.198-.199.373.038.322.445.299.649"/><path fill="#a2e35d" d="M159.15 410.298c.446-.086.542.141.24.539-.14.055-.336-.34-.24-.539"/><path fill="#3fb84b" d="M257.796 931.174c-.031.184-.337.267-.744.194.09-.202.28-.248.744-.194"/><path fill="#0b7d36" d="M527.933 270.004c1.314-.948 3.53-2.914 3.795-2.679 1.643 1.455 3.466 3.233 4.024 5.24.578 2.076-.054 4.561-.438 6.82-.688 4.032.964 5.897 5.07 5.576 1.526-.12 3.072-.02 4.607.03 1.342.046 3.51.686 3.854.142.769-1.216 1.104-3.118.774-4.545-1.287-5.553-1.41-5.534 4.338-5.584 2.802-.024 5.944.576 6.205-3.709.018-.298.22-.757.45-.846 7.378-2.833 7.582-10.185 10.018-16.062 10.222 1.215 10.869 1.971 12.893 15.155 1.254-.178 2.512-.357 4.162-.544.392 17.434.392 34.876.392 53.002h-30.421v82.759c-2.64.146-4.392.326-6.145.328-15.474.02-30.949.007-46.424.008-6.93 0-6.943.005-6.963 6.695-.027 9.151-.032 18.303-.365 28.23-3.456.865-6.594.936-9.732 1.046-7.929.278-15.857.573-23.753.401.045-4.436.074-8.412.066-12.388-.05-22.856-.108-45.712.234-68.823 3.191-.361 5.985-.5 8.781-.565 8.056-.185 16.113-.34 24.548-.763.619-2.03 1.062-3.805 1.067-5.58.053-16.654.02-33.307.047-49.96.002-1.71.226-3.42.348-5.129l1.68-.591c.983 1.571 2.361 3.025 2.87 4.737 1.226 4.117 2.63 4.785 5.506 1.514 2.402-2.733 4.064-6.115 6.442-9.814 3.615.778 8.59-2.159 12.72 2.288.475.513 4.257-.686 4.89-1.92 2.203-4.3-.659-8.318-5.636-8.938-.024-5.484.036-10.508.096-15.531"/><path fill="#5cc040" d="M464.241 441.927c7.929-.288 15.857-.583 23.786-.861 3.138-.11 6.276-.18 9.711-.564 42.31-.77 84.322-1.243 126.883-1.235 2.204.898 3.858 1.669 5.515 1.677 17.462.089 34.925.047 52.387.07 1.661.002 3.322.202 4.983.31l.04 1.846c-4.28.408-8.725 1.763-12.81 1.05-12.868-2.246-22.835 2.643-31.615 11.282-.544.535-.802 1.417-1.05 2.184-.699 2.15-1.213 4.366-1.998 6.482-1.61 4.34-.255 6.5 4.514 6.819 2.76.185 5.534.227 4.954 4.186-72.696.056-144.925.056-217.61.056 0-11.66 0-22.453.472-33.28 10.928-.03 21.383-.026 31.838-.022"/><path fill="#64c442" d="M650.008 475.116c.113-3.902-2.66-3.944-5.421-4.13-4.77-.319-6.123-2.477-4.514-6.818.785-2.116 1.3-4.331 1.997-6.482.249-.767.507-1.65 1.051-2.184 8.78-8.64 18.747-13.528 31.615-11.282 4.085.713 8.53-.642 12.81-1.05l-.04-1.846c-1.661-.108-3.322-.308-4.983-.31-17.462-.023-34.925.019-52.387-.07-1.657-.008-3.31-.779-5.052-1.597 22.859-.477 45.803-.586 68.748-.618 22.782-.032 45.565.013 68.821.105.475 12.201.475 24.323.475 37.01h-44.002v36.148c-10.999 0-21.414 0-32.423.01-.594.009-.9-.042-.823-.503.022-11.816-.032-23.171-.084-34.786-.267-.443-.536-.628-1.27-.887-11.815-.286-23.167-.498-34.518-.71"/><path fill="#1d1f24" d="M594.592 402.672c8.89-.253 17.538-.452 26.186-.455 56.45-.02 112.898.001 169.805.128-.804.619-2.066 1.555-3.328 1.557-63.699.073-127.398.067-191.097.053-.764 0-1.528-.22-2.292-.336.036-.158.039-.336.119-.468.083-.135.24-.224.607-.479"/><path fill="#0b7d36" d="M588.073 258.553c-5.619-1.985-6.005-3.259-2.913-8.283 2.611-4.245 4.824-8.765 7.731-12.789 1.868-2.585 4.561-4.637 7.125-6.617.757-.584 2.335-.106 3.537-.115-.05.93.264 2.16-.213 2.733-1.61 1.932-4.263 3.348-5.063 5.501-.744 2.004.371 4.699.78 7.993 3.179 0 6.897.084 10.606-.069.782-.032 1.967-.773 2.217-1.46 1.36-3.73 4.361-3.564 7.848-3.412.435 1.811.435 3.604.435 6.364h-32.099c0 3.864 0 6.78.009 10.154M620.64 238.54c-.465-3.41-.822-7.215-.87-11.307.532 3.447.756 7.18.87 11.307M620.326 210.747c-.3-1.941-.38-4.2-.144-6.568.332 2.011.35 4.13.144 6.568"/><path fill="#1d1f24" d="M590.695 384.294c.344 3.735.407 7.769.37 12.258-.284-3.683-.468-7.82-.37-12.258"/><path fill="#0b7d36" d="M620.623 189.593c-.296-.568-.473-1.486-.384-2.47.345.662.424 1.39.384 2.47"/><path fill="#38383d" d="M597.066 352.121c-.457.368-.956.467-1.816.42-.005-.767.352-1.388.708-2.009.355.44.71.881 1.108 1.59"/><path fill="#1d1f24" d="M590.722 366.232c.33 1.16.402 2.559.366 4.365-.28-1.103-.452-2.615-.366-4.365"/><path fill="#1d1f24" d="M590.925 353.096c.184-.053.222.443.135.676-.24.05-.411-.125-.532-.328-.025-.042.137-.194.397-.348"/><path fill="#8fe66f" d="M686.261 512.037c.153 22.464.153 44.903.153 67.815h-33.121v36.183c-7.473 0-14.41 0-22.173.006-2.282.12-3.738.235-5.442.334-.61-.033-.898.106-1.317.16-.612-.346-1.02-.449-1.653-.68-.403-.42-.58-.715-.708-1.463.048-22.343.048-44.231.048-66.47 9.421 0 18.05-.167 26.669.076 3.833.108 5.259-.929 5.16-4.995-.25-10.304-.043-20.62.46-30.981 10.807-.055 21.137-.059 31.467-.062 0 0 .305.05.457.077"/><path fill="#9eed79" d="M621.953 614.846c.176.294.352.588.731 1.266.228.554.253.724.194 1.138-.054.413-.025.582-.062 1.216-.036 6.797-.004 13.129-.037 19.91.001 2.855.067 5.26.06 8.014a47 47 0 0 0-.205 2.471c-.267.057-.483.193-1.135.584-10.373.175-20.259.175-30.596.175v33.803h-32.735c0 10.44.099 20.182-.105 29.918-.031 1.493-1.46 2.956-3.118 4.432-8.845-.01-16.814.062-24.78-.08-2.52-.044-4.262.33-4.525 3.358-1.134.924-1.934 1.796-2.684 2.614-4.09-1.183-1.849-4.098-1.526-6.434 3.305.223 4.68-.684 4.43-3.952-.38-4.965-.368-9.962-.427-14.947-.063-5.262-.014-10.526-.014-16.383h31.983v-33.76h32.966v-33.343z"/><path fill="#92e875" d="M494.845 787.619c-.548 1.579-1.537 3.148-1.57 4.737-.214 10.041-.216 20.086-.715 30.529-.802.475-1.177.552-1.99.543-2.808-.036-5.179.013-7.931-.094-8.137-.176-15.892-.195-23.915-.258-.622.025-.977.093-1.53-.006-.304-.302-.41-.438-.51-.999.006-11.488.006-22.55.006-33.706l7.064-1.126v-35.267c10.614 0 20.387 0 30.396-.07.777.196 1.317.462 1.507 1.017-.504 11.76-.658 23.23-.812 34.7"/><path fill="#b0f586" d="M426.01 860.887c-.62 1.394-1.76 2.78-1.78 4.182-.147 10.415-.072 20.834-.556 31.602-1.56.446-2.631.542-4.16.545-6.466-.007-12.473.078-18.924.063-3.455-.08-6.466-.062-9.612-.308-.445-.506-.755-.745-1.087-1.335.028-11.78.077-23.209.336-34.738.474-.284.658-.528 1.096-.9.782-.01 1.23.046 1.676.522-.375 4.662-.749 8.905-1.122 13.147l2.32.877c2.242-3.236 4.427-6.515 6.758-9.686.793-1.078 1.875-2.567 2.959-2.69 3.187-.359 6.44-.127 9.802-.127-1.806 9.453.549 13.097 7.543 15.418 3.157-6.02-1.42-10.201-3.984-14.248a353 353 0 0 1 5.12-3.274c.583-2.166.917-4.113.927-6.062.054-10.234.025-20.468.025-31.378h33.33c.107.135.213.27.515 1.023.334 11.886.473 23.154.47 34.77-.339 1.073-.536 1.798-1.155 2.498-2.116.023-3.81.071-5.957.038-3.833-.034-7.213.013-11.05-.017-4.8-.025-9.145.027-13.49.078m-33.923 32.44c2.634 2.728 4.901 2.684 6.909-.767 2.343-4.028 4.961-4.157 8.812-1.131 1.378 1.082 4.65 2.116 5.125 1.55 1.571-1.872 2.978-4.228.682-7.032-1.363-1.664-1.468-4.319-2.73-6.111-1.521-2.158-3.372-4.69-5.643-5.519-1.772-.646-5.654.394-6.427 1.843-2.765 5.187-4.606 10.868-6.728 17.167"/><path fill="#baf78e" d="M389.913 895.986c.31.24.62.479 1.043 1.397.182 2.335.253 3.992.324 5.648v29.95c-3.221.164-5.79.294-9.244.417-7.493-.033-14.1-.155-20.703-.005-1.429.033-2.835 1.045-4.521 1.608-.45.002-.629.003-.81.001-.002-.002-.006-.007-.006-.35-.008-.8-.015-1.257.04-2.175.062-12.137.062-23.813.062-35.746 6.203 0 11.658.097 17.108-.027 5.571-.126 11.138-.47 16.707-.718"/><path fill="#0b8136" d="M456.93 860.812c.196-.724.393-1.449 1.038-2.703.644-1.96 1.003-3.392 1.01-4.824.045-10.055.018-20.11.014-30.165 7.755.02 15.51.038 23.636.637a161 161 0 0 0 4.097 4.936l4.283-5.18c.375-.076.75-.153 1.412-.226.383 10.478.528 20.95.55 31.424.01 4.17-2.95 5.201-6.369 5.26-5.9.1-11.87.588-17.684-.124-5.604-.687-8.514 2.13-11.568 5.67-.372-1.82-.396-3.263-.42-4.705"/><path fill="#7bdd72" d="M256.451 1078.988c-.492-11.647-.518-23.354-.486-35.529 10.976-.482 21.895-.498 33.254-.565.536 2.7.63 5.452.79 8.656.063 9.103.063 17.756.063 27.377-11.336 0-22.245 0-33.62.061"/><path fill="#0f983d" d="M290.443 1042.995c-.542-11.686-.612-23.366-.634-35.512.05-.465.195-.476.66-.565 11.093-.054 21.722-.02 32.646.032.492.029.69.04.886.05 0 10.61-.108 21.22.06 31.826.052 3.297-1.091 4.291-4.305 4.236-9.612-.165-19.228-.06-29.313-.067"/><path fill="#0b8338" d="M324.47 1007c-.666-.01-.863-.021-1.135-.414.18-1.967.641-3.55.656-5.136.1-10.469.102-20.938.597-31.426 8.446.016 16.432.051 24.418.086l1.705 5.813 6.209-1.746c0 10.325.123 20.232-.198 30.125-.031.944-2.814 2.533-4.353 2.574-9.138.245-18.286.122-27.9.123"/><path fill="#0d8238" d="M357.081 935c1.417-.562 2.823-1.574 4.252-1.607 6.602-.15 13.21-.028 20.269.145.817 5.176 3.968 6.862 9.29 6.636 0 9.236.101 18.267-.16 27.288-.025.875-2.265 2.375-3.513 2.413-7.45.23-14.913.127-22.371.112-3.266-.007-4.678-1.725-4.894-4.947-.177-2.646-.828-5.26-1.758-8.42-.698-7.562-.906-14.591-1.115-21.62"/><path fill="#bcf890" d="M356.812 935c.478 7.029.686 14.058.983 21.542-.158 4.63-.403 8.806-.674 13.426-2.717 0-4.976 0-7.675.071-8.426.036-16.412 0-25.184-.043-1.003-.037-1.22-.066-1.3-.54.272-12.114.41-23.782.548-35.45.421-.173.842-.345 1.848-.762 10.596-.264 20.606-.285 30.616-.307.007.458.014.915-.442 1.717-4.666.345-8.867.345-14.199.345l9.249 15.884c3.47.008 5.706-1.518 5.455-5.912-.19-3.312-.035-6.643-.033-9.966z"/><path fill="#0e8b38" d="M494.89 788.017c.109-11.868.263-23.338 1.226-34.998 10.491-.156 20.173-.124 29.854-.091.01 10.28-.084 20.561.086 30.838.054 3.234-.973 4.41-4.255 4.288-5.63-.212-11.29-.312-16.903.052-2.97.194-5.87 1.465-9.47 2.429.018.072-.238-1.024-.539-2.518"/><path fill="#9aed78" d="M526.072 752.476c-9.783.42-19.465.387-29.606.253-1-.365-1.539-.63-2.308-1.293-.04-10.36.149-20.323.66-30.433 1.94-1.374 3.556-2.602 5.57-3.91 1.471-.02 2.546.04 3.665.446 1.287 1.666 2.529 2.988 3.77 4.31 1.056-1.538 2.112-3.075 3.616-4.697 3.487.001 6.527.086 9.566.17.102 2.245-2.14 5.16 1.95 6.343.751-.818 1.55-1.69 2.764-2.151.594 5.807.776 11.203.957 16.6-.168 4.636-.335 9.273-.604 14.362"/><path fill="#0d8437" d="M391.65 903.146c-.44-1.771-.512-3.428-.56-5.497 3.034-.432 6.045-.45 9.627-.01 6.569.628 12.568.81 18.568.91.222.003.458-.809.687-1.24 1.07-.096 2.142-.192 3.617-.307.407 10.441.314 20.903.466 31.36.047 3.257-.647 4.82-4.358 4.71-8.266-.242-16.544-.075-24.848-.075-.969-10.19-1.898-19.963-3.198-29.851"/><path fill="#0c8637" d="M527 738.256c-.505-5.539-.687-10.935-.946-16.794-.151-3.438 1.591-3.813 4.112-3.769 7.965.142 15.934.07 24.366.154 4.199 2.844 3.475 6.87 3.47 10.702-.008 7.478-.002 14.955-.002 23.586-3.913 0-7.552-.076-11.187.02-3.793.102-7.61.145-11.366.619-5.06.638-7.343-1.123-7.47-6.083-.07-2.768-.425-5.528-.976-8.435M591.217 665.244c-.314-5.207-.314-10.127-.314-15.624h30.508c.463 2.713.574 5.428.583 8.142.024 7.152-.08 14.305.044 21.455.048 2.751-.856 3.871-3.714 3.82-7.483-.13-14.971-.16-22.452.019-3.171.076-3.963-1.229-3.925-4.138.06-4.46-.258-8.925-.73-13.674"/><path fill="#0b8136" d="M622.844 637.927c-.032-6.332-.064-12.664.361-19.467a39 39 0 0 1 2.72-2.07c1.457-.114 2.913-.228 4.734-.265 1.707.676 3.029 1.732 4.395 1.792 4.817.213 9.651.171 14.474.052 2.588-.065 3.533.95 3.502 3.518-.097 7.987-.128 15.978.011 23.964.053 3-1.332 3.617-3.952 3.582-8.486-.114-16.974-.07-25.958-.13-.453-.75-.41-1.458.009-2.776.15-3.14-.073-5.67-.296-8.2"/><path fill="#0c8637" d="M426.009 861.365c4.346-.53 8.69-.58 13.692-.273 6.348 4.254 12.095 7.858 13.496 15.644.958 5.321-.943 7.991-6.32 7.087-2.127-.357-4.282-.55-6.385-.813-.186 1.262-.336 1.61-.26 1.901.162.637.431 1.247.671 1.863 2.116 5.433 1.1 6.967-4.539 7.254-3.46.176-6.907.637-10.36.97z"/><path fill="#0b8136" d="M426.093 895.395c3.364-.73 6.81-1.19 10.271-1.367 5.639-.287 6.655-1.821 4.54-7.254-.24-.616-.51-1.226-.673-1.863-.075-.29.075-.64.261-1.9 2.103.262 4.258.455 6.385.812 5.377.904 7.278-1.766 6.32-7.087-1.4-7.786-7.148-11.39-13.039-15.568a48 48 0 0 1 10.396.046c.804 4.101 2.434 6.286 6.447 5.786 0 8.645.125 17.293-.13 25.93-.042 1.379-1.759 3.845-2.763 3.878-8.8.286-17.614.151-26.423.062-.505-.005-1.002-.703-1.592-1.475"/><path fill="#0a8738" d="M457.002 866.75c-4.014.75-5.644-1.435-5.994-5.455 1.689-.436 3.383-.484 5.5-.507.445 1.466.469 2.908.493 4.782z"/><path fill="#8bd84a" d="M324.41 172.99c-.068-19.688-.135-39.376.225-59.517 5.792.635 7.391-1.148 6.833-7.18 2.122-.127 3.785-.185 5.448-.186 68.402 0 136.804.019 205.206-.007 13.476-.005 26.952-.181 40.857-.23 5.032-.177 7.852 1.732 8.228 6.566-.466.372-.932.744-1.905 1.503-.772 1.135-1.263 1.88-1.265 2.628a5866 5866 0 0 0 .012 45.41c.005 1.036.721 2.068 1.106 3.101.028 1.676.055 3.352-.277 5.692-.531 2.476-.702 4.287-.872 6.099-2.38.034-4.76.069-7.663-.322-2.13-.801-3.736-1.176-5.284-1.908 1.597-1.15 3.06-2.175 4.686-2.694 5.34-1.705 6.484-4.609 3.544-9.225-.597-.936-1.102-2.05-1.246-3.135-.774-5.828-3.543-10.494-8.008-14.58l-5.4 4.193c-2.669-3.873-5.544-6.46-10.062-2.724-.608.502-2.594-.662-3.916-1.047-.805.948-1.516 1.87-2.313 2.71-3.967 4.18-8.579 7.456-14.3 8.495-1.122.203-2.933-1.62-3.877-2.911-.513-.701.132-2.249.255-3.415l-1.02-.494-6.17 9.046q-.447-.254-.895-.507l2.637-10.609c-2.722-.317-4.605-.413-6.43-.789-1.467-.302-2.865-.944-4.294-1.435-.086 1.652-.266 3.307-.221 4.955.026.947.418 1.885.645 2.826l-.883 1.292-8.15-4.433c-1.216 2.942-2.398 5.499-.353 9.094 1.617 2.842 1.373 5.897-2.272 8.513-3.504 2.514-7.227 6.174-8.437 10.08-1.634 5.274-4.548 4.115-7.808 3.516-3.042 5.272-4.85 5.643-8.952 2.007-6.16-5.459-8.72-5.13-14.398 1.327-1.074 1.22-3.092 1.61-5.342 2.71l.698-6.558c-3.376.845-6.17 1.68-9.021 2.207-1.682.31-3.645.64-5.146.073-3.29-1.242-6.268-3.322-9.567-4.53-2.156-.79-2.76-5.558-6.364-2.565 1.3 1.226 2.604 2.45 3.895 3.686.107.103.124.299.603 1.534-1.496.799-4.422 2.732-4.669 2.436-2.195-2.637-3.917-5.668-5.887-8.753 1.88-.848 3.018-1.195 3.947-1.842.58-.403 1.307-1.422 1.147-1.878-.28-.804-1.227-2.002-1.827-1.964-3.497.218-6.985.677-10.443 1.255-.463.077-.93 1.247-1.068 1.973-.73 3.86-1.357 7.74-2.018 11.602l2.79 8.148 4.133-4.33-4.296-3.17c3.499-3.292 5.877-.262 8.036 1.152 1.085.711 1.911 3.362 1.441 4.597-1.183 3.11-3.41 5.808-4.76 8.873-1.175 2.664-1.725 5.603-2.882 9.553-3.694 1.44-4.67 4.415-3.183 14.79-5.574-2.082-6.514.98-6.78 5.553-.214 3.684-2.79 6.447-6.426 6.468-1.966.01-3.946-2.282-5.163-3.055l-6.434 1.476 2.64-6.62-6.98-4.22c-2.493 2.793-4.182 4.776-5.972 6.664-1.785 1.882-3.848 3.525-5.47 5.53-2.68 3.314-4.996 6.922-7.674 10.237-1.807 2.237-4.177 4.025-5.94 6.29-4.06 5.221-11.762 6.368-14.946 1.814-1.05-1.5-1.084-3.712-1.849-6.602l-4.382 5.882c-1.407-1.544-2.412-3.636-3.765-3.892-1.844-.349-3.953.702-7.268 1.45l8.851-15.692c-4.566-.535-8.426-.44-11.924-1.521-5.607-1.733-6.022-1.689-6.509 4.603-1.939 1.99-3.389 5.44-5.134 5.597-9.691.87-17.701 6.138-26.522 9.205-3.37 1.172-6.25 1.306-7.01-3.21.832-.016 1.68-.146 2.494-.03 4.118.591 5.434-1.057 5.402-5.254-.174-22.155-.063-44.313-.05-66.944 10.42-.464 20.84-.455 31.972-.426.88.036 1.05.052 1.148.408-1.222 1.086-2.372 1.832-3.849 2.789.69.613 1.348 1.616 1.796 1.53 3.318-.637 6.89-.93 9.79-2.455 2.321-1.221 3.409-4.129 1.194-6.823-1.953-2.375-3.978-3.695-6.234-.183-.327.51-1.469.497-2.234.726m141.063 6.696 1.643 1.018.405-.824c-.536-.205-1.073-.41-2.048-.194m-95.761 56.772-.336 1.737 1.232.015c-.098-.582-.196-1.163-.896-1.752"/><path fill="#8eda4d" d="M575 174.995c1.607.376 3.214.75 4.903 1.478-7.68.352-15.443.352-23.753.352v35.339c-9.761 0-18.986 0-28.908.033-1.017.189-1.158.444-1.118.798-.045 2.35-.089 4.701-.403 7.797-9.778.902-19.288 1.058-29.258 1.184-7.613-.041-14.764-.061-21.916-.065-10.483-.006-10.482-.001-10.479 10.448.002 7.746 0 15.492 0 23.77h-36.02c0 6.985.068 13.427-.022 19.867-.063 4.449 1.31 10.49-1 12.886-2.253 2.337-8.37 1.069-12.795 1.16-5.818.122-11.646.168-17.46-.03-3.458-.117-4.83 1.138-4.663 4.62.387 8.117.583 16.244.71 24.737-.483 2.287-.822 4.204-1.278 6.777h-58.516c0 9.158-.22 17.63.09 26.084.162 4.412-.898 6.107-5.707 5.943-10.968-.372-21.96.002-32.938-.174-3.416-.054-4.691.906-4.597 4.477.225 8.48-.206 16.982.175 25.45.225 4.999-1.664 6.124-6.317 6.087-19.462-.158-38.927.04-58.39.108-.062-23.341-.123-46.683-.217-70.472 8.854-.603 17.74-.74 26.625-.93 1.791-.038 3.579-.274 6.137-.579 2.425-1.219 4.486-1.95 5.658-3.4 3.123-3.867 10.178-4.145 11.063.182 1.44 7.04 8.967 4.26 11.136 9.39l1.244-1.259-3.97-5.97c2.529-2.207 4.616-3.368 7.256.25 3.174 4.35 9 5.055 13.555 2.512 1.798-1.004 4.103-1.06 6.025-1.895 2.605-1.133 6.408-2.005 7.311-4.046 2.013-4.546 3.87-9.904 3.308-14.638-.562-4.741 1.872-6.732 4.291-9.172 1.01-1.018 4.052-.71 4.363-1.621 2.192-6.423 6.375-3.76 10.426-2.882.87.19 3.096-1.496 2.997-1.893-1.001-4.013 1.825-3.222 4.046-3.793 3.898-1.002 9.35.467 10.096-6.349.116-1.06 5.134-2.975 6.795-2.19 3.541 1.676 6.077 2.1 8.874-.91.717-.772 2.167-1.453 3.139-1.297 4.255.686 5.802-2.531 7.757-5.082 2.755-3.594 7.799-5.03 8.914-10.334.444-2.109 2.8-3.887 4.47-5.643 1.107-1.165 2.4-2.538 3.85-2.927 6.153-1.653 12.438-2.824 18.56-4.57.954-.273 1.91-2.653 1.84-4.005-.229-4.39 2.311-7.006 5.238-9.523.588-.506 1.66-1.01 1.674-1.535.125-4.752 2.516-4.928 6.358-3.857 1.194.333 3.484-1.056 4.272-2.294.486-.765-.778-2.808-1.51-4.137-.715-1.3-2.129-2.326-2.474-3.668-.149-.58 2.21-2.507 2.418-2.363 1.327.92 2.353 2.267 3.518 3.433.759.758 1.617 2.044 2.373 2.004.769-.04 1.557-1.355 2.165-2.23.414-.598.532-1.402.908-2.469 4.501 2.861 5.192-.885 7.004-2.992 2.293-.763 4.156-2.002 6.02-3.24 1.235-.82 2.37-2.026 3.727-2.384 4.131-1.088 5.026-3.237 2.479-6.721 2.509-2.335 4.49-3.68 7.164-.331.828 1.038 3.24 1.014 4.946 1.098 2.135.106 4.33-.504 6.426-.235 6.829.878 9.202-.587 10-5.688l11.517 4.79 1.29-9.065c6.62 3.776 7.587 3.944 8.803-3.075 1.457-8.414 7.163-11.565 13.81-12.664 5.33-.882 11.19.37 16.624 1.55 4.092.889 6.442.378 7.385-3.885.159-.716.599-1.369 1.6-3.571l3.538 7.45 7.255.001h4.999z"/><path fill="#79d048" d="M591.615 112.49c-.784-4.888-3.604-6.797-8.588-7.064-.41-11.407-.44-22.322-.47-33.237 11.108-.062 22.216-.158 33.325-.145 1.447.002 2.893.56 4.76.923.289 1.161.158 2.26-.438 3.883-.288 6.028-.112 11.53.064 17.032-.09 5.418-.179 10.835-.548 16.868a22 22 0 0 0-.705 2.176c-8.997-.128-17.994-.256-27.4-.437"/><path fill="#bff992" d="M527.852 269.54c.02 5.487-.039 10.51-.096 16.422-.099 2.487-.2 4.087-.326 6.104-2.496 0-4.62-.037-6.743.007-7.589.158-15.177.345-23.005.602-.376.183-.512.283-.67.245-.023-.139.02-.417.006-.797.031-.63.075-.879.263-1.22.193-.194.31-.337.278-.392-.109-.185-.27-.34-.475-.972.046-11.55.155-22.635.743-33.674 6.581-.258 12.7-.984 18.782-.747 5.974.233 7.925-.855 8.48-8.515.115-1.594 1.418-3.102 2.174-4.65.17 9.042.338 18.083.589 27.588"/><path fill="#aef183" d="M527.405 241.574c-.898 1.927-2.201 3.435-2.317 5.029-.554 7.66-2.505 8.748-8.479 8.515-6.082-.237-12.2.489-18.86.372-.646-11.442-.736-22.463-.825-33.484 9.51-.156 19.019-.312 28.817-.774.795 6.45 1.3 13.206 1.664 20.342"/><path fill="#8eda4d" d="M589.206 164.636c-.436-.591-1.152-1.623-1.157-2.659a5866 5866 0 0 1-.012-45.41c.002-.747.493-1.493 1.092-2.382.266 16.575.197 33.292.077 50.451"/><path fill="#8bd84b" d="M620.426 93.448c-.334-5.068-.51-10.57-.36-16.207.39 5.168.454 10.47.36 16.207"/><path fill="#85d64c" d="M653.084 57.555c-.248-3.028-.448-6.513-.353-10.281.33 3.086.366 6.455.353 10.281M653.02 69.536c-.226-2.7-.398-5.849-.273-9.275.306 2.756.317 5.79.273 9.275"/><path fill="#8eda4d" d="M588.38 176.724c-.204-1.667-.033-3.478.44-5.538.18 1.632.058 3.513-.44 5.538"/><path fill="#8bd84b" d="M619.302 112.84c-.145-.435-.003-.955.364-1.634.125.41.024.98-.364 1.634"/><path fill="#1c9c38" d="M526.3 212.907c-.216-.266-.075-.521.476-.67.108.25-.069.44-.476.67"/><path fill="#9ced76" d="M360.053 735.51c-.32-8.372-.641-16.743-.923-25.53.237-7.872.58-15.327.598-22.784.023-9.47-.218-18.94-.663-29.21-7.285-1.01-14.25-1.37-21.218-1.398-19.818-.079-39.638-.018-59.457-.02-19.144 0-38.288.043-57.432-.033-20.318-.08-40.635-.279-60.953-.425-.003-10.352-.007-20.704.42-31.593 61.643-.538 122.854-.555 184.064-.528 15.795.007 31.59.152 47.382.686-.004 2.444-.007 4.437-.008 6.43-.014 33.216-.086 66.433.037 99.649.014 3.835-.874 5.275-4.96 5.103-8.951-.376-17.923-.262-26.887-.348"/><path fill="#1c9c38" d="M67 682.988c0-6.993.056-13.987-.026-20.979-.03-2.506.362-4.065 3.474-4.055 25.11.083 50.22.046 75.352 1.044h-16.424c-8.491 0-16.99.22-25.47-.09-4.107-.15-5.154 1.32-4.98 5.152.273 5.982.069 11.985.06 18.444-.006.465-.495.485-1.208.49-10.735 0-20.756-.003-30.778-.006"/><path fill="#0a7e34" d="M67 683.458c10.022-.467 20.043-.463 30.534-.455.793 5.78 1.233 11.554 1.385 17.334.06 2.273-.524 4.562-.865 7.25-.497.41-.943.411-1.725.414l-28.81.001c-.18-8.359-.35-16.217-.519-24.544"/><path fill="#00652c" d="M159.56 656.24c20.763.016 41.08.214 61.398.295 19.144.076 38.288.032 57.432.034 19.82.001 39.639-.06 59.457.02 6.968.027 13.933.388 21.075 1.012-65.881.41-131.938.405-198.465.405-4.314-.193-8.158-.392-12.17-.899 3.499-.45 7.164-.594 11.274-.867"/><path fill="#e4fdbb" d="M582.128 72.162c.459 10.942.489 21.857.47 33.216-13.524.54-27 .717-40.476.722-68.402.026-136.804.006-205.206.007-1.663 0-3.326.059-5.86.096-2.778.013-4.684.019-6.59.025-.247-.043-.493-.086-1.11-.182-.342-10.645-.313-21.237-.23-32.27 4.022-.886 7.991-1.331 12.414-1.837 20.76.012 41.067.132 61.373.145 61.595.04 123.19.037 185.215.078"/><path fill="#3cb53d" d="M225.253 394.343c19.55-.29 39.015-.488 58.477-.33 4.653.037 6.542-1.088 6.317-6.087-.381-8.468.05-16.97-.175-25.45-.094-3.571 1.18-4.531 4.597-4.477 10.978.176 21.97-.198 32.938.174 4.809.164 5.87-1.53 5.707-5.943-.31-8.454-.09-16.926-.09-26.084h58.516c.456-2.573.795-4.49 1.7-6.776 2.847.32 5.09 1.208 7.418 1.64 1.787.33 3.68.086 5.526.097-.254-1.46-.298-3.001-.818-4.36-.587-1.532-1.676-2.863-2.414-4.348-1.204-2.425 2.052-7.562 4.64-7.208.795.11 2.047 1.09 2.063 1.697.024.916-.638 2.203-1.412 2.684-.743.463-1.998.1-3.24.1 2.469 4.876 5.172 5.205 9.894 1.556l4.083 6.25 1.222-9.613c2.612 2.258 4.531 3.23 5.384 4.788 2.21 4.039 3.916 8.351 5.892 12.522 1.523 3.213.175 6.004-3.349 5.683-3.265-.297-6.408-1.808-9.64-2.644-1.292-.333-2.894-.792-3.988-.329-4.242 1.797-4.756 5.524-4.448 9.607.292 3.867.409 7.747.67 12.963 5.119 3.515 11.694 8.03 18.271 13.005 0 4.154-.003 7.848-.38 11.536-3.837-2.61-7.3-5.216-10.738-7.802-1.004 1.148-1.659 2.151-2.545 2.866-4.462 3.6-4.473 4.764-.632 9.231 1.42 1.652 2.282 3.784 3.298 5.524l-15.334 7.733 3.566 9.355c-1.941-.206-3.018-.253-4.068-.45-1.041-.195-2.055-.54-3.081-.82-.044 1.21-.11 2.417-.126 3.625-.033 2.552.827 5.553-.218 7.573-3.116 6.021-6.976 11.658-10.545 17.445l-.96-1.148h-4.818c.064 1.516.334 3.06.126 4.538-.155 1.096-.741 2.272-1.48 3.108-.814.923-2.022 1.499-3.06 2.564-.335 1.113-.667 1.887-1.348 2.665-1.45.667-2.55 1.332-4.019 2.001-7.132 1.247-11.1 11.542-7.552 20.856-1.972.45-3.822 1.035-5.715 1.262-1.93.231-5.226-.533-5.612.262-1.266 2.603-2.714 6.155-1.863 8.552 2.356 6.641 1.873 12.315-3.003 17.715 2.732 3.164 2.97 5.915-.962 7.835.158 2.312-.442 4.396-1.18 6.43-.446 1.231-1.5 2.353-1.602 3.581-.528 6.347.63 12.715-4.038 18.559-2.545 3.186-2.858 8.234-3.839 12.52-.183.8 1.157 2.73 1.941 2.818 2.099.234 4.278-.25 7.053-.506 4.381 3.037 4.734 7.866 3.564 13.236-1.617 7.424-.55 8.894 6.007 11.835 3.297 1.478 6.518 3.75 8.907 6.433 2.026 2.275 2.807 5.657 3.827 7.873-.54 3.013-1.053 5.874-1.918 8.74-1.115.655-1.878 1.307-3.105 1.978-4.491.008-8.52-.005-12.639-.41-4.361-.784-8.631-1.179-12.89-1.963 1.529-1.534 3.047-2.677 4.962-4.118-.898-2.484-2.765-3.551-5.005-1.558-1.743 1.55-2.678 4.01-4.371 6.066h-4.048c-3.435.875-7.218-1.939-9.922 1.988-1.128.006-1.88-.008-2.722-.41-3.696-.786-7.302-1.182-10.86-1.952.535-1.01 1.012-2.186 1.512-2.196 4.662-.094 4.856-2.286 4.998-6.594.168-5.063-.152-5.947-4.708-3.524-.782.415-2.386-.716-3.61-1.133.481-1.368.63-3.041 1.531-4.021.997-1.083 2.685-1.53 4.072-2.253l-1.242-.673c.294-1.73.295-3.579.943-5.164 1.298-3.177 3.36-6.084 4.363-9.332 1.688-5.469-2.76-8.118-5.983-11.225-4.726 3.722-11.587 5.477-11.237 13.791-2.23-1.464-3.563-2.341-6.287-4.132v9.33l-1.096.809c-1.735-2.364-3.352-4.828-5.231-7.072-3.487-4.163-4.52-11.722-12.83-9.479-.482.13-1.675-.763-1.807-1.346-.186-.818.027-2.076.582-2.637.999-1.007 2.38-1.637 4.11-2.753l-4.073-1.99 1.027-.732-2.066-5.096c-1.02 1.354-2.451 2.566-2.98 4.09-1.208 3.478-3.266 2.956-6.064 1.903l1.944-6.2c-2.166 0-3.803-.037-5.437.007-3.137.085-6.285.418-9.403.231-1.348-.08-3.497-.928-3.796-1.89-1.169-3.759-1.113-7.989-2.709-11.5-1.75-3.853-5.277-1.376-7.84-.37-.611.24-.997 3.392-.306 4.22 3.612 4.335-.048 6.584-2.317 9.186-.947 1.086-2.424 1.7-3.425 2.751-1.813 1.905-3.183 1.597-4.158-.652-1.255-2.894-3.15-3.447-6.049-2.399-.868.315-2.184-.607-3.294-.963.666-1.157 1.148-2.49 2.045-3.427 1.143-1.19 2.543-2.194 3.979-3.025 1.135-.658 2.49-.936 4.125-1.516l-2.425 6.466 2.25.646 2.604-11.129c-5.413 1.484-7.141-.681-7.37-4.973-2.447.523-4.476 1.153-6.543 1.324-1.18.097-2.42-.557-3.632-.872.685-1.03 1.29-2.876 2.07-2.952 3.968-.388 4.01-2.73 3.407-5.686-.262-1.28-.353-2.594-.52-3.893l1.49-.445 3.955 7.854c4.8-7.188 4.64-8.527-1.323-11.766.454-.668 1.24-1.294 1.259-1.942.097-3.457-2.608-7.25 1.352-10.205-.759-1-1.504-2.012-2.28-2.999-1.513-1.924-3.71-3.612-4.44-5.795-2.023-6.032-3.523-12.246-5.06-18.43-.889-3.581-2.824-4.61-6.222-3.326-3.205 1.21-6.45 2.315-9.677 3.467-.05-11.707-.1-23.414.107-35.698.472-.792.612-1.047.674-1.345h32.126c0-9.22 0-17.623-.08-26.49-.08-.463.115-.897.201-1.118m3.045 118.585-4.655-.856 3.034 5.884 1.335-.22c.329-1.578.659-3.157 1.835-4.736l5.063-2.174-2.339-2.715c-1.172 1.466-2.348 2.93-3.507 4.407-.087.11-.046.319-.766.41M207.42 424c-.831.002-1.949-.338-2.441.072-1.437 1.195-2.624 2.691-3.909 4.07 1.453.95 2.867 2.58 4.368 2.663 1.568.086 3.421-1.067 4.762-2.155.873-.71 1.053-2.271 1.544-3.45-1.159-.4-2.317-.8-4.324-1.2m138.73 63.639-.513-4.75c-2.414.425-4.906.626-7.194 1.417-.644.223-1.222 3.004-.918 3.2 1.65 1.066 3.534 1.938 5.45 2.349.798.17 1.875-.968 3.175-2.216m-26.12 81.285c.271-1.399.544-2.797 1.03-5.297l-7.846 3.586 3.845 8.686c3.986-.622 2.628-3.814 2.97-6.975m90.028-206.609c.643-1.254 2.129-3.241 1.785-3.637-1.61-1.851-3.726-3.265-5.66-4.835q-.78.647-1.557 1.295c.834 1.291 1.615 2.62 2.517 3.862.718.985 1.584 1.862 2.915 3.315m-11.238-23.014c-2.709 2.77-1.883 4.814 1.567 7.473.25-3.342 3.893-5.864-1.567-7.473M296.94 534.739l5.188-1.454-.582-1.61c-2.36-.744-4.702-1.445-4.606 3.064m53.726 36.473-1.45-4.81c-2.668 3.32-3.007 5.018 1.45 4.81m-54.315-28.909 2.136 1.046.263-1.313c-.765-.126-1.53-.252-2.4.267M195.224 439.486l1.651-.947-1.133-1.213c-.32.583-.641 1.167-.518 2.16m139.48 109.082.858-.818c-.113-.118-.319-.345-.326-.339-.302.255-.585.53-.531 1.157m61.864-220.272-.818-.857c-.118.113-.345.319-.339.326.255.302.53.585 1.157.531m-55 232-.818-.857c-.118.113-.345.318-.339.326.255.302.53.585 1.157.531"/><path fill="#3eb73e" d="M192.148 459.333c3.304-1.49 6.55-2.595 9.754-3.806 3.398-1.285 5.333-.255 6.223 3.325 1.536 6.185 3.036 12.4 5.058 18.431.732 2.183 2.928 3.87 4.441 5.795.776.987 1.521 1.998 2.28 2.999-3.96 2.955-1.255 6.748-1.352 10.205-.019.648-.805 1.274-1.259 1.942 5.963 3.239 6.123 4.578 1.323 11.766l-3.956-7.854-1.49.445c.168 1.299.26 2.613.52 3.893.605 2.956.562 5.298-3.407 5.686-.778.076-1.384 1.922-2.07 2.952 1.213.315 2.454.969 3.633.872 2.067-.17 4.096-.8 6.543-1.324.229 4.292 1.957 6.457 7.37 4.973l-2.604 11.13-2.25-.647 2.425-6.466c-1.634.58-2.99.858-4.125 1.516-1.436.831-2.836 1.834-3.979 3.025-.897.936-1.379 2.27-2.045 3.427 1.11.356 2.426 1.278 3.294.963 2.9-1.048 4.794-.495 6.049 2.399.975 2.249 2.345 2.557 4.158.652 1.001-1.052 2.478-1.665 3.425-2.75 2.269-2.603 5.929-4.852 2.317-9.187-.691-.828-.305-3.98.306-4.22 2.563-1.006 6.09-3.483 7.84.37 1.596 3.511 1.54 7.741 2.709 11.5.299.962 2.448 1.81 3.796 1.89 3.118.187 6.266-.146 9.403-.231 1.634-.044 3.271-.008 5.437-.008l-1.944 6.201c2.798 1.053 4.856 1.575 6.063-1.902.53-1.525 1.96-2.737 2.981-4.09l2.066 5.095-1.027.732 4.072 1.99c-1.73 1.116-3.11 1.746-4.109 2.753-.555.561-.768 1.819-.582 2.637.132.583 1.325 1.476 1.806 1.346 8.311-2.243 9.344 5.316 12.83 9.48 1.88 2.243 3.497 4.707 5.232 7.071l1.096-.809v-9.33l6.287 4.132c-.35-8.314 6.511-10.069 11.237-13.79 3.223 3.106 7.67 5.755 5.983 11.224-1.003 3.248-3.065 6.155-4.363 9.332-.648 1.585-.65 3.434-.943 5.164l1.242.673c-1.387.724-3.075 1.17-4.072 2.253-.902.98-1.05 2.653-1.53 4.021 1.223.417 2.827 1.548 3.609 1.133 4.556-2.423 4.876-1.539 4.708 3.524-.142 4.308-.336 6.5-4.998 6.594-.5.01-.977 1.186-1.98 2.196-8.041.374-15.566.374-23.092.374l-.265-1.735 5.98-2.333c-4.994-1.748-9.33-3.354-13.74-4.728-.797-.248-2.001.273-2.816.769-.956.581-1.693 1.523-2.525 2.31.858.573 1.652 1.3 2.587 1.69 2.01.834 4.091 1.494 6.144 2.226-9.417 3.037-104.21 2.08-107.224-.487 8.873-1.934 18.026 1.37 26.012-3.324-.588-1.13-1.173-1.934-1.438-2.831-.482-1.635-.775-3.325-1.147-4.992-1.604.897-3.22 1.775-4.81 2.696-3.052 1.767-6.09 3.559-9.135 5.34l-1.286-1.885c.863-.898 1.766-1.762 2.58-2.702.884-1.023 2.403-2.127 2.39-3.178-.042-3.11-.52-6.252-1.16-9.311-1.576-7.55-5.489-14.858-1.581-23.21l-8.39-.494c-1.53-3.228-3.092-5.746-3.93-8.485-1.074-3.51-3.003-5.418-7.01-5.34l-.854-.01c-.055-5.017-.111-10.034.312-15.583 2.191-3.053 3.425-5.52-.305-7.422-.064-6.002-.129-12.005.165-18.63.561-1.199.763-1.776 1.327-2.39 4.49-1.1 5.86-3.997 6.031-7.96 1.467 0 2.534 0 3.601.415.537 2.344 1.074 4.276 1.61 6.207 1.793-1.037 3.74-1.883 5.333-3.167 1.552-1.25 2.742-2.95 4.36-4.161 3.185.318 6.521 2.5 8.682-1.35.023-2.356.047-4.713.518-7.498 2.278.108 4.11.644 5.984 1.192.991-6.908.443-7.542-6.154-7.52-.088-1.148-.175-2.297-.185-3.786m9.422 13.787c-.861.354-2.404.6-2.479 1.078-.742 4.726-3.472 7.334-8.034 8.33-.774.17-1.825.615-2.101 1.225-.765 1.687-1.673 3.572-1.522 5.29.067.762 2.508 1.73 3.947 1.88 5.549.582 9.42-3.103 11.599-7.076 1.364-2.487-.48-6.735-1.41-10.727m9.929 109.851-2.655-1.755-1.206.769c.779 1.656 1.183 3.766 2.46 4.818.933.77 3.013.151 4.582.151l.075-1.549c-.904-.658-1.808-1.315-3.256-2.434m-6.891-5.226-5.163.743.931 2.063c1.486-.699 2.971-1.397 4.232-2.806m1.228 7.796c-2.936-2.95-3.994-.236-5.435 1.322l.47 1.36c1.6-.663 3.2-1.326 4.965-2.682"/><path fill="#3fb840" d="M162.008 530.998c3.722-.08 5.65 1.828 6.725 5.338.838 2.74 2.4 5.257 3.93 8.485l8.39.494c-3.908 8.352.005 15.66 1.582 23.21.639 3.06 1.117 6.2 1.158 9.31.014 1.052-1.505 2.156-2.39 3.179-.813.94-1.716 1.804-2.58 2.702q.645.943 1.287 1.886c3.045-1.782 6.083-3.574 9.136-5.341 1.59-.921 3.205-1.799 4.81-2.696.371 1.667.664 3.357 1.146 4.992.265.897.85 1.7 1.438 2.831-7.986 4.695-17.14 1.39-26.012 3.324 3.014 2.567 97.807 3.524 107.224.487-2.053-.732-4.135-1.392-6.144-2.227-.935-.388-1.729-1.116-2.587-1.69.832-.786 1.569-1.728 2.525-2.31.815-.495 2.02-1.016 2.815-.768 4.41 1.374 8.747 2.98 13.741 4.728l-5.98 2.333.265 1.735h23.044c4.074.396 7.68.792 10.908 1.596-52.37.455-104.363.5-156.83.503-10.508-.056-20.54-.067-30.573-.079-.051-14.4-.103-28.8-.112-43.68 10.295-.477 20.549-.477 31.437-.477.125-2.473.238-4.71.754-7.657.567-3.875.73-7.042.893-10.208"/><path fill="#9ae254" d="M161.4 408.127c-.405-9.399-.187-18.711-.5-28.006-.144-4.302 1.398-5.341 5.417-5.203 8.132.278 16.28.089 24.851.104.527.752.625 1.49.72 3.065.03 4.861.063 8.887.095 12.914-.033 4.655.132 9.325-.223 13.955-.104 1.354-1.677 3.709-2.592 3.716-9.12.077-18.241-.243-27.769-.545"/><path fill="#e3fcba" d="M192.408 391c-.457-4.026-.49-8.052-.485-12.54 8.319-.452 9.892 1.96 7.303 9.559-1.257 3.689-3.89 2.82-6.818 2.982"/><path fill="#40ba41" d="M183.034 478.003c-1.349 1.503-2.539 3.203-4.09 4.453-1.594 1.284-3.541 2.13-5.333 3.167-.537-1.931-1.074-3.863-1.236-6.209 1.776-.929 3.178-1.443 4.58-1.957 1.742-.08 3.483-.158 5.655.014.431.25.424.532.424.532M192.241 463.465c6.689-.368 7.237.266 6.246 7.174-1.875-.548-3.706-1.084-5.904-1.627-.389-1.738-.41-3.47-.342-5.547M167.999 479.002c.229 3.962-1.14 6.86-5.633 7.519-.716-3.118-1.067-5.832-1.419-8.546.805-.271 1.609-.543 2.846-.387 1.69.756 2.948 1.085 4.206 1.414"/><path fill="#31b238" d="M168.399 479c-1.658-.327-2.916-.656-4.266-1.308 3.913-.36 7.917-.398 12.372-.335-.952.614-2.354 1.128-4.13 1.644z"/><path fill="#a2e35d" d="M159.805 473.614c-1.62-.237-3.166-.892-4.712-1.547 1.298-1.025 2.597-2.05 4.272-3.087.422 1.398.468 2.807.44 4.634"/><path fill="#31b238" d="M183.303 478.295c-.269-.292-.262-.574-.269-.715 2.683-.258 5.373-.374 8.506-.563-1.716 3.778-5.052 1.596-8.237 1.278M160.805 508.417c3.801 1.467 2.567 3.933.466 6.527-.438-1.98-.487-4.036-.466-6.527M160.851 478.428c.448 2.261.8 4.975 1.153 8.13-.2 1.017-.402 1.594-.874 2.336-.304-3.229-.34-6.621-.279-10.466M161.723 530.996c.122 3.168-.041 6.335-.514 9.781-.366-2.776-.422-5.832-.409-9.34.259-.449.449-.446.923-.441"/><path fill="#40ba41" d="M192.748 421.989c.196.26.056.515-.342.853-.093-.189-.004-.502.342-.853"/><path fill="#0a8738" d="M160.084 593.142c51.992-.045 103.985-.091 156.445-.156 1.22-.006 1.972.008 3.55.02 3.528-.017 6.231-.035 9.402-.03 7.482.01 14.498 0 21.513-.012 4.028.014 8.057.027 13.015.04 6.282-.017 11.634-.033 17.434-.03 4.133.296 7.82.57 11.52 1.325.026 6.968.16 13.459-.007 19.942-.085 3.335-.704 6.655-1.082 9.982-15.795-.082-31.59-.227-47.385-.234-61.21-.027-122.421-.01-184.102.07-4.457.01-8.443-.06-12.776-.585 3.766-.92 7.878-1.384 12.473-1.902z"/><path fill="#1c9f3c" d="M159.608 593.099c.476 9.629.476 19.214.476 28.473-4.595.518-8.707.981-12.925 1.815-5.791.423-11.478.475-17.655.009-.5-10.484-.508-20.45-.517-30.416 0 0 .034.008.041.024 10.04.028 20.073.04 30.58.095"/><path fill="#56c649" d="M128.523 593.044c.473 9.902.482 19.868.523 30.285-9.706.451-19.445.451-29.466.451v-30.672c9.712 0 19.095 0 28.943-.064"/><path fill="#09853e" d="M391.871 624.675c.38-3.779 1-7.1 1.085-10.434.166-6.483.033-12.974.337-20.19 1.797-.83 3.281-1.018 4.766-1.02 21.125-.02 42.25-.08 63.375.048 3.41.02 4.804-.886 4.58-4.472-.268-4.308.195-8.663-.114-12.965-.277-3.871 1.26-4.86 4.878-4.712 6.145.252 12.314-.116 18.458.139 3.617.15 5.149-.832 4.89-4.704-.309-4.637.125-9.322-.142-13.964-.207-3.589 1.185-4.446 4.595-4.48 18.09-.178 36.176-.676 54.265-.874 3.243-.036 4.272-1.011 4.3-4.28.085-10.282.506-20.56 1.266-30.902 24.013-.08 47.558-.124 71.102-.097 8.115.01 16.23.198 24.346.305-.024 10.31-.23 20.626.02 30.93.098 4.066-1.328 5.103-5.161 4.995-8.618-.243-17.248-.076-26.669-.076 0 22.239 0 44.127-.048 66.47-10.343.454-20.638.454-31.632.454v33.344h-32.966v33.759h-31.983c0 5.857-.049 11.12.014 16.383.06 4.985.046 9.982.426 14.947.25 3.268-1.124 4.175-4.429 3.952-3.464.007-6.504-.078-10.42-.17-2.92.04-4.96.086-7.002.133-1.074-.06-2.149-.12-4.02-.182l-5.858-.001.366 4.139c-.19 9.963-.378 19.926-.575 30.356-9.78.466-19.553.466-30.167.466v35.267l-7.064 1.126c0 11.156 0 22.218-.006 33.706-10.92.426-21.834.426-33.337.426 0 10.91.029 21.144-.025 31.378-.01 1.949-.344 3.896-1.39 5.982-10.218.174-19.574.208-28.931.243-.448-.056-.896-.113-1.953-.095-.75.38-.89.687-1.032.993-.048 11.43-.097 22.859-.125 34.638-5.547.598-11.114.942-16.685 1.068-5.45.124-10.905.027-17.108.027 0 11.933 0 23.609-.062 35.746-10.072.482-20.082.503-30.559.566-.762-1.537-1.316-3.116-1.316-4.695-.002-32.328.05-64.657.129-96.985.005-2.152-.876-5.067 3.733-4.787 1.05-.069 1.43-.134 2.146-.14.558.017.78-.026 1.372.087 8.257.155 16.145.155 24.118.155V746.07c-.01-2.79-.021-5.58-.086-8.767 1.221-.793 2.496-1.187 4.125-1.688 9.319-.02 18.29-.134 27.242.242 4.086.172 4.974-1.268 4.96-5.103-.123-33.216-.051-66.433-.037-99.65.001-1.992.004-3.985.008-6.43"/><path fill="#9ded76" d="M329.834 826.377c-.38.065-.761.13-1.425.135-4.467-14.72-1.744-29.709-2.338-44.536-.458-11.43-.31-22.883-.719-34.613 1.225-.65 2.736-1.31 4.254-1.327 8.39-.092 16.78-.026 25.613.01.44 26.704.44 53.385.44 80.632-7.973 0-15.86 0-24.242-.39-.857-.231-1.22-.071-1.583.089"/><path fill="#0b8640" d="M323.144 933.74c.228 11.934.09 23.602-.64 35.69-11.226.444-21.862.468-32.498.492-.106-8.725-.211-17.45-.418-26.563-.173-3.292-.245-6.197-.358-9.474 11.156-.385 22.352-.399 33.914-.145"/><path fill="#8bd84b" d="M575.06 174.639c-1.449.357-2.838.358-4.711-.002-2.399-2.098-4.149-2.726-5.349.359h-6.838l-3.538-7.45c-1.001 2.202-1.441 2.855-1.6 3.57-.943 4.264-3.293 4.775-7.385 3.886-5.434-1.18-11.294-2.432-16.624-1.55-6.647 1.099-12.353 4.25-13.81 12.664-1.216 7.019-2.183 6.851-8.803 3.075l-1.29 9.065-11.517-4.79c-.798 5.1-3.171 6.566-10 5.688-2.096-.27-4.291.34-6.426.235-1.706-.084-4.118-.06-4.946-1.098-2.674-3.35-4.655-2.004-7.164.33 2.547 3.485 1.652 5.634-2.479 6.722-1.358.358-2.492 1.564-3.728 2.385-1.863 1.237-3.726 2.476-6.019 3.239-1.812 2.107-2.503 5.853-7.004 2.992-.376 1.067-.494 1.87-.908 2.468-.608.876-1.396 2.19-2.165 2.23-.756.04-1.614-1.245-2.373-2.003-1.165-1.166-2.19-2.513-3.518-3.433-.208-.144-2.567 1.783-2.418 2.363.345 1.342 1.76 2.368 2.475 3.668.731 1.33 1.995 3.372 1.509 4.137-.788 1.238-3.078 2.627-4.272 2.294-3.842-1.07-6.233-.895-6.358 3.857-.013.526-1.086 1.029-1.674 1.535-2.927 2.517-5.467 5.133-5.238 9.523.07 1.352-.886 3.732-1.84 4.004-6.122 1.747-12.407 2.918-18.56 4.57-1.45.39-2.743 1.763-3.85 2.928-1.67 1.756-4.026 3.534-4.47 5.643-1.115 5.304-6.159 6.74-8.914 10.334-1.955 2.55-3.502 5.768-7.757 5.082-.972-.156-2.422.525-3.139 1.297-2.797 3.01-5.333 2.586-8.874.91-1.66-.785-6.68 1.13-6.795 2.19-.746 6.816-6.198 5.347-10.096 6.35-2.22.57-5.047-.221-4.046 3.792.099.397-2.127 2.082-2.997 1.893-4.05-.879-8.234-3.541-10.426 2.882-.311.911-3.353.603-4.363 1.621-2.419 2.44-4.853 4.43-4.29 9.172.56 4.734-1.296 10.092-3.309 14.638-.903 2.04-4.706 2.913-7.311 4.046-1.922.836-4.227.89-6.025 1.895-4.556 2.543-10.38 1.837-13.555-2.513-2.64-3.617-4.727-2.456-7.255-.249l3.969 5.97-1.244 1.258c-2.169-5.129-9.695-2.35-11.136-9.389-.885-4.327-7.94-4.05-11.063-.183-1.172 1.45-3.233 2.182-5.291 3.225-.398-.754-.393-1.491-.038-2.633a79 79 0 0 0 1.328-1.642l-1.6-.692c-.03-8.687-.06-17.374.316-26.564 5.892-1.882 2.43-6.949 4.207-10.055 2.08-3.638-1.232-12.087-4.506-14.38-.02-5.353-.042-10.706.006-16.522 3.475-.336 6.881-.21 10.688.455 2.02 1.66 3.64 2.78 5.26 3.9l3.09-4.504c1.76.027 3.52.055 5.63.203 1.107 4.637 3.987 4.503 7.358 3.331 8.82-3.067 16.83-8.335 26.522-9.205 1.745-.157 3.195-3.608 5.135-5.198.4 1 .195 2.02.537 2.26 1.19.838 2.568 1.405 3.875 2.076l1.787-3.648c-1.306-.536-2.583-1.178-3.933-1.556-.556-.155-1.271.256-1.914.41.134-6.233.549-6.277 6.156-4.544 3.498 1.08 7.358.986 11.924 1.52l-8.85 15.694c3.314-.749 5.423-1.8 7.267-1.451 1.353.256 2.358 2.348 3.765 3.892l4.382-5.882c.765 2.89.8 5.101 1.85 6.602 3.183 4.554 10.886 3.407 14.946-1.813 1.762-2.266 4.132-4.054 5.939-6.291 2.678-3.315 4.993-6.923 7.673-10.236 1.623-2.006 3.686-3.649 5.471-5.531 1.79-1.888 3.479-3.871 5.973-6.665 1.8 1.089 4.76 2.88 6.98 4.22l-2.64 6.621 6.433-1.476c1.217.773 3.197 3.066 5.163 3.055 3.636-.02 6.212-2.784 6.426-6.468.266-4.574 1.206-7.635 6.78-5.552-1.487-10.376-.511-13.35 3.183-14.791 1.157-3.95 1.707-6.89 2.881-9.553 1.352-3.065 3.578-5.763 4.761-8.873.47-1.235-.356-3.886-1.44-4.597-2.16-1.414-4.538-4.444-8.037-1.152l4.296 3.17-4.133 4.33-2.79-8.148c.66-3.862 1.287-7.742 2.018-11.602.138-.726.605-1.896 1.068-1.973 3.458-.578 6.946-1.037 10.443-1.255.6-.038 1.547 1.16 1.827 1.964.16.456-.567 1.475-1.147 1.878-.93.647-2.068.994-3.947 1.842 1.97 3.085 3.692 6.116 5.887 8.753.247.296 3.173-1.637 4.669-2.436-.479-1.235-.496-1.431-.603-1.534-1.291-1.237-2.595-2.46-3.895-3.686 3.604-2.993 4.208 1.775 6.364 2.565 3.299 1.208 6.276 3.288 9.567 4.53 1.501.567 3.464.238 5.146-.073 2.851-.528 5.645-1.362 9.02-2.207l-.697 6.558c2.25-1.1 4.268-1.49 5.342-2.71 5.678-6.457 8.238-6.786 14.398-1.327 4.102 3.636 5.91 3.265 8.952-2.007 3.26.6 6.174 1.758 7.808-3.517 1.21-3.905 4.933-7.565 8.437-10.08 3.645-2.615 3.889-5.67 2.272-8.512-2.045-3.595-.863-6.152.352-9.094l8.151 4.433.883-1.292c-.227-.941-.62-1.879-.645-2.826-.045-1.648.135-3.303.221-4.955 1.429.491 2.827 1.133 4.294 1.435 1.825.376 3.708.472 6.43.79l-2.637 10.608.895.507 6.17-9.046 1.02.494c-.123 1.166-.768 2.714-.255 3.415.944 1.29 2.755 3.114 3.878 2.91 5.72-1.038 10.332-4.314 14.3-8.494.796-.84 1.507-1.762 2.312-2.71 1.322.385 3.308 1.549 3.916 1.047 4.518-3.736 7.393-1.149 10.062 2.724 1.988-1.544 3.63-2.82 5.4-4.193 4.465 4.086 7.234 8.752 8.008 14.58.144 1.085.65 2.199 1.246 3.135 2.94 4.616 1.795 7.52-3.544 9.225-1.625.52-3.089 1.544-4.686 2.694m-307.846 97.509c3.272 3.57 5.55 2.05 7.207-.524l-2.704-6.181 7.34 3.291c-1.736-2.831-2.481-5.65-4.138-6.37-2.458-1.068-5.563-.648-7.852-.82 0 4.253 0 7.038.147 10.604m46.673-9.412c.373 1.43.93 2.84 1.084 4.293.445 4.192 2.456 3.339 4.034 2.447-.411-3.078-.553-5.45-1.113-7.72-.249-1.01-1.342-1.812-2.053-2.708-.769.987-1.538 1.974-1.952 3.688m10.743-5.75 4.26-1.922c-.687-.969-1.251-2.602-2.09-2.757-1.406-.262-2.988.417-4.496.7.494 1.308.989 2.615 2.326 3.98m-18.031 37.868 2.436 2.42 3.265-7.47-2.203-1.155a378 378 0 0 0-3.498 6.205m.427-44.835-.652 7.446 1.418.531c.684-1.654 1.912-3.32 1.877-4.96-.027-1.271-1.633-2.508-2.643-3.017m-9.29 35.684-4.445-.686 1.05 3.5c1.178-.687 2.356-1.373 3.395-2.814m6.347-14.296 2.952.842v-4.79l-1.494-.128c-.495 1.113-.99 2.226-1.458 4.076m139.712-84.26-1.966-2.899-1.722 3.178c1.112.132 2.224.264 3.688-.28M373.78 249.03c-2.832.344-2.832.344-1.341 4.505.686-1.74 1.093-2.773 1.341-4.505m70.343-38.754-2.717.372.674 1.914c.847-.613 1.695-1.226 2.043-2.286m-24.65 6.41 1.644 1.018.405-.824c-.536-.205-1.073-.41-2.048-.194m137.802-51.804.577 1.632.837-.383c-.326-.56-.653-1.12-1.414-1.25m-225.979 98.552-.857.818c.113.118.319.345.326.339.302-.255.585-.53.531-1.157m-49.905 20.77 1.184.013c.001-.164.014-.47.003-.47-.393-.03-.788-.033-1.187.457"/><path fill="#8bd84a" d="M276.614 249.26c-.641 1.569-1.671 3.07-2.701 4.571-1.62-1.12-3.24-2.24-4.886-3.748 2.382-.556 4.79-.724 7.587-.823M257.914 266.465c3.319 1.826 6.631 10.275 4.551 13.913-1.777 3.106 1.685 8.173-4.162 9.588-.386-7.654-.41-15.344-.39-23.5M257.903 317.33c.572-.102 1.105.128 1.639.36-.326.412-.652.825-1.283 1.275-.336-.409-.366-.855-.356-1.634"/><path fill="#c4fa97" d="M289.961 970.395c10.68-.497 21.317-.521 32.409-.52.672.055.889.084 1.431.14.292 10.497.29 20.966.19 31.435-.015 1.587-.476 3.169-.952 5.118-10.848.33-21.477.296-32.574.277-.495-11.982-.522-23.98-.504-36.45"/><path fill="#e3fcba" d="M291.115 153.988c-.597-3.4-.783-6.787-.874-10.619 3.193-.718 6.077-.239 7.463 2.916.806 1.834 1.867 4.227 1.3 5.833-.842 2.383-3.226 3.601-6.03 2.05-.393-.217-.96-.12-1.859-.18"/><path fill="#8bd84b" d="M324.313 173.358c.862-.598 2.004-.585 2.331-1.095 2.256-3.512 4.281-2.192 6.234.183 2.215 2.694 1.127 5.602-1.195 6.823-2.9 1.526-6.471 1.818-9.789 2.455-.448.086-1.106-.917-1.796-1.53 1.477-.957 2.627-1.703 3.87-3.056.077-.784.06-.962.043-1.14.068-.757.137-1.515.302-2.64M324.37 106.637c2.002-.415 3.908-.421 6.228-.338 1.428 6.026-.17 7.81-5.868 6.716-.373-1.992-.415-3.98-.36-6.378"/><path fill="#e3fcba" d="M323.802 176.09c.226.086.243.264.238.708-.191.25-.36.235-.773.146-.129-.366.061-.595.535-.854"/><path fill="#dffcb7" d="M212.873 322.734c1.824-.372 3.579-.445 5.763-.403 1.654 1.005 2.879 1.894 5.061 3.477-2.24 2.119-4.091 4.782-6.608 5.799-1.005.406-3.774-2.604-5.138-4.494-.548-.76.52-2.686.922-4.38"/><path fill="#d5faac" d="M464.274 441.467c-10.488.456-20.943.452-32.122.49-1.194-.111-1.664-.264-1.935-.859.132-2.372.065-4.301.087-6.619.036-1.705-.016-3.023.022-4.758.194-4.737.368-9.057.389-13.379.09-19.111.137-38.223.404-57.397.473-.184.682-.372 1.297-.696 10.853-.062 21.24-.056 31.623.337.043.899.09 1.412.138 1.926.055 22.855.113 45.711.163 68.567.008 3.976-.021 7.952-.066 12.388"/><path fill="#d0faa6" d="M464.574 360.256c-.444-.258-.492-.771-.454-2.15.084-22.464.084-44.065.084-65.603h32.827s-.042.278.046.796c.191 1.532.295 2.546.305 4.028-.015 20.931.064 41.394.142 61.857-8.056.167-16.113.322-24.169.507-2.796.064-5.59.204-8.781.565"/><path fill="#097634" d="M497.903 358.928c-.457-20.207-.536-40.67-.342-61.908.302-1.993.332-3.21.36-4.427 7.59-.175 15.177-.362 22.766-.52 2.123-.044 4.247-.007 6.743-.007.126-2.017.227-3.617.409-5.644 4.975-.267 7.837 3.75 5.633 8.05-.632 1.235-4.414 2.434-4.89 1.92-4.128-4.446-9.104-1.509-12.72-2.287-2.377 3.699-4.04 7.081-6.441 9.814-2.876 3.271-4.28 2.603-5.505-1.514-.51-1.712-1.888-3.166-2.872-4.737l-1.68.591c-.12 1.71-.345 3.419-.347 5.128-.026 16.654.006 33.307-.047 49.96-.005 1.776-.448 3.55-1.067 5.581m9.017-64.743-4.782.47c3.011 2.389 4.616 3.454 4.782-.47m-7.506.299s.11-.066 0 0"/><path fill="#ddfcb4" d="M430.018 441.54c.47.153.94.306 1.662.451.251 10.785.251 21.577.251 33.238 72.685 0 144.914 0 217.61-.056 11.818.155 23.17.367 35.062.872.686.577.903.788 1.19.927.055 11.356.11 22.711.087 34.527-10.406.464-20.736.468-31.544.523-8.593-.056-16.709-.244-24.824-.254-23.544-.027-47.089.018-71.42.021-1.219.05-1.65.113-2.493.095-1.808-.04-3.203.003-5.063-.03-47.645-.116-94.826-.144-142.007-.225a72 72 0 0 1-11.894-1.036c.08-23.198.128-45.924.244-68.64.068.01.068-.128.54-.126 11.18-.095 21.89-.19 32.599-.287"/><path fill="#d5faac" d="M685.796 476.713c-.29.12-.507-.091-.73-.594.194-.034.463.15.73.594"/><path fill="#097534" d="M625.678 616.375c-.507.548-1.262 1.082-2.406 1.62-.419-.163-.448-.332.009-.792.753-.336 1.02-.382 1.286-.427.213-.295.5-.434 1.111-.4"/><path fill="#0b8136" d="M624.361 616.534c-.06.287-.327.333-.997.425-.427-.123-.452-.293-.453-.72.43-.153.838-.05 1.45.295"/><path fill="#097534" d="M622.78 638.376c.287 2.081.51 4.61.433 7.403-.367-2.143-.433-4.548-.434-7.403"/><path fill="#097233" d="M458.724 823.076c.272 10.1.3 20.154.254 30.209-.007 1.432-.366 2.863-.868 4.476-.445-11.086-.584-22.355-.72-34.073.357-.519.712-.587 1.334-.612"/><path fill="#097534" d="M490.57 823.428c-.99 1.812-2.418 3.539-3.845 5.265-1.242-1.452-2.484-2.904-3.715-4.78 2.381-.472 4.752-.52 7.56-.485"/><path fill="#b2f587" d="M392.053 892.924c2.156-5.896 3.997-11.577 6.762-16.764.773-1.449 4.655-2.49 6.427-1.843 2.27.83 4.122 3.36 5.642 5.519 1.263 1.792 1.368 4.447 2.73 6.11 2.297 2.805.89 5.161-.68 7.033-.476.566-3.748-.468-5.126-1.55-3.85-3.026-6.469-2.897-8.812 1.13-2.008 3.452-4.275 3.496-6.943.365"/><path fill="#b2f587" d="M393 860.52c9.358-.455 18.714-.49 28.534-.444-.904.964-2.27 1.848-4.259 3.135 2.564 4.047 7.141 8.227 3.984 14.248-6.994-2.32-9.349-5.965-7.543-15.418-3.361 0-6.615-.232-9.802.128-1.084.122-2.166 1.611-2.959 2.689-2.33 3.171-4.516 6.45-6.759 9.686l-2.32-.877c.374-4.242.748-8.485 1.123-13.147"/><path fill="#097534" d="M419.514 897.216c.229.524-.007 1.336-.23 1.332-6-.099-11.998-.281-18.124-.81 5.88-.444 11.888-.529 18.354-.522"/><path fill="#b2f587" d="M390.227 860.898c-.07-.206.072-.513.488-.826.17.298-.014.542-.488.826"/><path fill="#baf78e" d="M356.002 935.002c0 3.326-.154 6.657.035 9.97.251 4.393-1.986 5.92-5.455 5.911L341.333 935c5.332 0 9.533 0 14.2-.002.463-.002.467.003.469.005"/><path fill="#9eed79" d="M504.053 717.539c1.996-.392 4.038-.438 6.508-.394-.626 1.629-1.682 3.166-2.737 4.704-1.242-1.322-2.484-2.644-3.771-4.31M494.819 721.003c-.434-1.107-.545-2.36-.689-3.992 1.898 0 3.48 0 5.46.081-1.216 1.31-2.833 2.537-4.771 3.911"/><path fill="#8bd84b" d="M465.692 179.474c.756-.006 1.293.2 1.83.405l-.406.824c-.548-.34-1.096-.678-1.424-1.229M370.013 236.46c.399.586.497 1.167.595 1.749l-1.232-.015c.112-.58.224-1.158.637-1.733"/><path fill="#3db73f" d="M497.018 292.123c-10.706.38-21.425.38-32.814.38 0 21.538 0 43.139-.08 65.218-10.468.472-20.855.466-31.933.43-.692-.029-1.17-.144-1.486.03-.781 1.722-1.247 3.27-1.713 4.818-6.575-4.515-13.15-9.03-18.27-12.544-.26-5.216-.377-9.096-.669-12.963-.308-4.083.206-7.81 4.448-9.607 1.094-.463 2.696-.004 3.987.33 3.233.835 6.376 2.346 9.641 2.643 3.524.32 4.872-2.47 3.349-5.683-1.976-4.17-3.681-8.483-5.892-12.522-.853-1.557-2.772-2.53-5.384-4.788l-1.222 9.614-4.083-6.25c-4.722 3.648-7.425 3.319-9.894-1.557 1.242 0 2.497.363 3.24-.1.774-.481 1.436-1.768 1.412-2.684-.016-.608-1.268-1.588-2.063-1.697-2.588-.354-5.844 4.783-4.64 7.208.738 1.485 1.827 2.816 2.414 4.348.52 1.359.564 2.9.818 4.36-1.846-.011-3.74.233-5.526-.098-2.328-.43-4.571-1.318-7.272-2.01-.695-8.123-.891-16.25-1.278-24.368-.166-3.481 1.205-4.736 4.662-4.619 5.815.198 11.643.152 17.461.03 4.426-.091 10.542 1.177 12.796-1.16 2.31-2.396.936-8.437.999-12.886.09-6.44.023-12.882.023-19.866h36.02v-23.771c-.004-10.449-.005-10.454 10.478-10.448 7.152.004 14.303.024 21.916.065.55 11.05.64 22.072.807 33.468-.03 11.46-.14 22.545-.233 34.342.043.878.072 1.043.1 1.209-.044.25-.088.499-.119 1.128"/><path fill="#8bd84a" d="M565.417 174.997c.784-3.086 2.534-2.458 4.515-.362-1.321.361-2.71.362-4.515.362"/><path fill="#0b7d36" d="M497.682 292.675c.21 1.135.181 2.352-.027 3.877-.283-.707-.387-1.72-.556-3.114.071-.48.207-.58.583-.763"/><path fill="#aef183" d="M497.281 290.903c-.172-.074-.2-.24-.182-.652.19-.08.351.075.46.26.032.055-.085.198-.278.392"/><path fill="#3eb73e" d="M396.604 511.065c3.975.197 7.95.557 11.925.564 47.181.08 94.362.109 142.012.571 2.721 4.666 3.761-.336 5.47-.235.431-.063.862-.126 1.612-.113.027 10.355-.394 20.633-.48 30.914-.027 3.27-1.056 4.245-4.299 4.28-18.09.2-36.175.697-54.265.876-3.41.033-4.802.89-4.595 4.479.267 4.642-.167 9.327.143 13.964.258 3.872-1.274 4.853-4.89 4.704-6.145-.255-12.314.113-18.459-.14-3.619-.148-5.155.842-4.878 4.713.309 4.302-.154 8.657.114 12.965.224 3.586-1.17 4.493-4.58 4.472-21.124-.127-42.25-.068-63.375-.047-1.485.001-2.969.19-4.782.539-4.015-.026-7.7-.301-11.927-.986-5.144-.802-9.748-1.193-14.351-1.585l1.566-8.735c-1.02-2.216-1.801-5.598-3.827-7.873-2.39-2.684-5.61-4.955-8.907-6.433-6.557-2.94-7.624-4.411-6.007-11.835 1.17-5.37.817-10.2-3.564-13.236-2.775.256-4.954.74-7.053.506-.784-.088-2.124-2.019-1.94-2.819.98-4.285 1.293-9.333 3.838-12.519 4.669-5.844 3.51-12.212 4.038-18.559.102-1.228 1.156-2.35 1.602-3.582.738-2.033 1.338-4.117 1.18-6.429 3.932-1.92 3.694-4.671.962-7.835 4.876-5.4 5.36-11.074 3.003-17.715-.85-2.397.597-5.949 1.863-8.552.386-.795 3.682-.03 5.612-.262 1.893-.227 3.743-.811 5.715-1.262-3.548-9.314.42-19.609 7.76-20.596 1.77-.583 2.965-1.424 4.16-2.264.332-.775.664-1.55 1.376-2.656 4.179 2.085 7.928 4.59 11.804 6.877 1.447.853 3.192 1.2 4.806 2.248.008 19.767-.031 39.067.082 58.365.01 1.747 1 3.488 1.536 5.231"/><path fill="#3db73f" d="M394.98 447c-1.608-.578-3.353-.926-4.8-1.78-3.876-2.287-7.625-4.79-11.802-7.214.659-.733 1.867-1.309 2.681-2.232.739-.836 1.325-2.012 1.48-3.108.208-1.477-.062-3.022-.126-4.538h4.818l.96 1.148c3.569-5.787 7.429-11.424 10.545-17.445 1.045-2.02.185-5.02.218-7.573.016-1.208.082-2.416.126-3.624 1.026.28 2.04.624 3.081.82 1.05.196 2.127.243 4.068.449l-3.566-9.355 15.334-7.733c-1.016-1.74-1.878-3.872-3.298-5.524-3.84-4.467-3.83-5.631.632-9.23.886-.716 1.54-1.72 2.545-2.867 3.438 2.586 6.901 5.191 10.742 8.27.378 16.697.34 32.92.436 49.141.011 1.847.77 3.689 1.182 5.533.052 1.318.104 2.636-.252 4.601-.789 2.042-1.17 3.436-1.668 5.26-8.991 0-17.918-.084-26.84.082-1.52.029-3.02 1.136-4.53 1.744 0 0 .001.138-.414.24-.793 1.712-1.172 3.324-1.551 4.935"/><path fill="#31b238" d="M430.326 429.721c-.502-1.427-1.26-3.27-1.272-5.116-.095-16.221-.058-32.444-.062-49.134l.002-12.011c.464-2.01.93-3.557 1.649-5.033.26.241.265.41.27.58-.061 19.112-.108 38.224-.198 57.335-.02 4.322-.195 8.642-.389 13.379"/><path fill="#40ba41" d="M207.843 424c1.583.4 2.741.8 3.9 1.2-.49 1.179-.67 2.74-1.544 3.45-1.34 1.088-3.194 2.241-4.762 2.155-1.5-.083-2.915-1.714-4.368-2.664 1.285-1.378 2.472-2.874 3.909-4.07.492-.41 1.61-.069 2.865-.07"/><path fill="#3eb73e" d="M345.974 487.991c-1.125.896-2.202 2.034-3 1.864-1.916-.41-3.8-1.283-5.45-2.349-.304-.196.274-2.977.918-3.2 2.288-.791 4.78-.992 7.194-1.416.171 1.583.342 3.166.338 5.101M320.017 569.338c-.33 2.747 1.027 5.94-2.959 6.561l-3.845-8.686 7.847-3.586c-.487 2.5-.76 3.898-1.043 5.71"/><path fill="#3fb840" d="M350.903 592.574c-6.924.401-13.94.412-21.315.15-.103-.757.154-1.24.412-1.724h8.001c4.27.394 8.54.789 12.902 1.574"/><path fill="#3db73f" d="M409.79 362.051c-1.065-1.189-1.931-2.066-2.649-3.051-.902-1.241-1.683-2.57-2.517-3.862l1.556-1.295c1.935 1.57 4.05 2.984 5.661 4.835.344.396-1.142 2.383-2.05 3.373"/><path fill="#3eb73e" d="M338.013 590.61c-1.08.39-2.146.39-3.614.39.893-2.056 1.828-4.516 3.57-6.066 2.241-1.993 4.108-.926 5.006 1.558-1.915 1.441-3.433 2.584-4.962 4.118"/><path fill="#3fb840" d="M366.647 591.005c4.955.387 9.56.778 14.255 1.56-5.26.406-10.611.422-16.43.418.297-.671 1.06-1.323 2.175-1.978"/><path fill="#3db73f" d="M399.18 339.22c5.098 1.69 1.455 4.212 1.205 7.554-3.45-2.66-4.276-4.703-1.206-7.554"/><path fill="#3eb73e" d="M228.65 512.964c.02 1.615-.309 3.194-.638 4.773l-1.335.22-3.034-5.885c1.552.285 3.103.57 5.006.892M229.423 513c-.405-.163-.446-.373-.36-.482 1.16-1.478 2.336-2.94 3.508-4.407l2.339 2.715c-1.688.725-3.376 1.45-5.487 2.174M296.661 534.492c.182-4.262 2.524-3.56 4.884-2.816l.582 1.61c-1.73.484-3.459.969-5.466 1.206M329.55 591c.192.483-.065.967-.43 1.702-2.81.27-5.513.287-8.666.286 1.879-3.927 5.662-1.113 9.097-1.988M350.41 571.454c-4.202-.034-3.863-1.732-1.196-5.052.639 2.117 1.045 3.463 1.196 5.052"/><path fill="#3db73f" d="M376.651 441.003c-.846.837-2.042 1.678-3.444 2.257.894-.925 1.994-1.59 3.444-2.257"/><path fill="#3eb73e" d="M296.402 541.98c.818-.196 1.582-.07 2.347.056l-.263 1.313c-.712-.349-1.424-.697-2.084-1.368"/><path fill="#40ba41" d="M195.001 439.281c.099-.788.42-1.372.74-1.955l1.133 1.213c-.55.316-1.1.632-1.873.742"/><path fill="#3eb73e" d="M334.534 548.391c.116-.45.4-.725.7-.98.008-.006.214.221.327.34-.286.272-.572.545-1.027.64"/><path fill="#3db73f" d="M396.392 328.466c-.45-.116-.726-.4-.98-.7-.007-.008.22-.214.338-.327.273.286.546.572.642 1.027"/><path fill="#3eb73e" d="M341.391 560.466c-.45-.116-.725-.4-.98-.7-.006-.009.221-.214.34-.327.272.286.545.572.64 1.027"/><path fill="#40ba41" d="M201.832 473.387c.667 3.725 2.512 7.973 1.148 10.46-2.18 3.973-6.05 7.658-11.6 7.076-1.438-.15-3.879-1.118-3.946-1.88-.151-1.718.757-3.603 1.522-5.29.276-.61 1.327-1.055 2.101-1.225 4.562-.996 7.292-3.604 8.034-8.33.075-.477 1.618-.724 2.741-.81"/><path fill="#3fb840" d="M211.771 583.202c1.176.888 2.08 1.545 2.984 2.203l-.075 1.55c-1.569 0-3.649.619-4.583-.152-1.276-1.052-1.68-3.162-2.459-4.818l1.206-.769c.885.585 1.77 1.17 2.927 1.986M204.72 578.1c-1.373 1.054-2.858 1.752-4.344 2.451l-.93-2.063c1.72-.248 3.441-.495 5.274-.388M205.754 585.888c-1.682 1.009-3.282 1.672-4.883 2.335l-.47-1.36c1.441-1.558 2.5-4.272 5.353-.975"/><path fill="#abf381" d="M330.169 826.436c.028-.22.391-.38.879-.304-.099.278-.321.32-.88.304"/><path fill="#8bd84a" d="M267.14 271.758c-.074-3.176-.074-5.96-.074-10.214 2.29.172 5.394-.248 7.852.82 1.657.72 2.402 3.539 4.138 6.37l-7.34-3.291 2.704 6.181c-1.656 2.573-3.935 4.093-7.28.134M313.708 262.372c.592-1.35 1.361-2.337 2.13-3.324.71.896 1.804 1.698 2.053 2.708.56 2.27.702 4.642 1.113 7.72-1.578.892-3.589 1.745-4.034-2.447-.154-1.453-.711-2.863-1.262-4.657M324.207 256.958c-.915-1.336-1.41-2.643-1.904-3.95 1.508-.284 3.09-.963 4.496-.701.839.155 1.403 1.788 2.09 2.757-1.42.641-2.84 1.282-4.682 1.894M306.759 294.525a647 647 0 0 1 3.337-5.875l2.203 1.155-3.265 7.47c-.812-.806-1.624-1.613-2.275-2.75M322 238.398c.643-.552 1.358-.963 1.914-.808 1.35.378 2.627 1.02 3.933 1.556l-1.787 3.648c-1.307-.67-2.686-1.238-3.875-2.076-.342-.24-.137-1.26-.184-2.32M307.078 249.648c.957.88 2.563 2.118 2.59 3.39.035 1.638-1.193 3.305-1.877 4.96l-1.418-.532c.218-2.482.435-4.964.705-7.818M297.805 286.08c-1.109 1.065-2.287 1.751-3.465 2.438l-1.05-3.5c1.481.229 2.963.457 4.515 1.063M304.068 271.04c.481-1.482.977-2.595 1.472-3.708l1.494.129v4.79c-.984-.282-1.968-.562-2.966-1.212M443.618 187.485c-1.288.206-2.4.074-3.512-.058l1.722-3.178c.655.966 1.31 1.932 1.79 3.236M373.859 249.378c-.328 1.383-.735 2.416-1.421 4.156-1.491-4.161-1.491-4.161 1.42-4.156"/><path fill="#8eda4d" d="M444.372 210.498c-.598.837-1.446 1.45-2.293 2.063l-.674-1.914c.906-.124 1.811-.248 2.967-.149"/><path fill="#8bd84a" d="M419.692 216.474c.756-.006 1.293.2 1.83.405l-.406.824c-.548-.34-1.096-.678-1.424-1.229"/><path fill="#8eda4d" d="M557.493 164.666c.543.344.87.904 1.196 1.464l-.837.383c-.192-.544-.385-1.088-.36-1.847"/><path fill="#8bd84a" d="M331.466 263.609c-.116.45-.4.725-.7.98-.008.006-.214-.221-.327-.34.286-.272.572-.545 1.027-.64M281.393 283.954c.397-.242.792-.24 1.185-.21.01.001-.002.307-.003.47-.395-.003-.79-.007-1.182-.26"/><path fill="#31b238" d="M397.419 441.827c1.037-.61 2.537-1.717 4.057-1.746 8.922-.166 17.849-.082 26.84-.082.498-1.824.88-3.218 1.58-4.872.386 1.67.453 3.6.32 5.971-10.907.538-21.616.634-32.797.729"/><path fill="#d0faa6" d="M431.119 358.945c-.21-.107-.217-.277-.16-.692.061-.246.54-.13.765-.033.077.353-.132.541-.605.725"/><path fill="#0b7d36" d="M507.202 294.4c-.448 3.71-2.053 2.644-5.064.256 2.384-.235 3.583-.353 5.064-.257M499.469 294.451c.055-.033-.055.033 0 0"/><path fill="#31b238" d="M394.986 447.469c.374-2.08.753-3.692 1.478-5.414.299 22.614.25 45.34.17 68.538-.566-1.271-1.556-3.012-1.566-4.759-.113-19.298-.074-38.598-.082-58.365"/><path fill="#3db73f" d="M555.6 511.884c-1.298-.02-2.338 4.982-4.595.392 1.39-.389 2.786-.431 4.594-.392"/></svg>